<svg width="25" height="25" viewBox="0 0 25 25" fill="none" xmlns="http://www.w3.org/2000/svg">
<path d="M23.7681 2.75157H19.3875V1.23184C19.3875 1.14119 19.3515 1.05425 19.2874 0.990155C19.2233 0.926056 19.1363 0.890045 19.0457 0.890045H17.5883C17.5434 0.89002 17.4989 0.898843 17.4574 0.916011C17.416 0.933178 17.3783 0.958354 17.3465 0.990098C17.3148 1.02184 17.2896 1.05953 17.2724 1.10101C17.2553 1.14249 17.2464 1.18695 17.2465 1.23184V2.75157H13.5705V1.23184C13.5705 1.18695 13.5617 1.14249 13.5445 1.10101C13.5274 1.05953 13.5022 1.02184 13.4704 0.990098C13.4387 0.958354 13.401 0.933178 13.3595 0.916011C13.318 0.898843 13.2736 0.89002 13.2287 0.890045H11.7713C11.7264 0.89002 11.6819 0.898843 11.6404 0.916011C11.599 0.933178 11.5613 0.958354 11.5295 0.990098C11.4978 1.02184 11.4726 1.05953 11.4554 1.10101C11.4383 1.14249 11.4294 1.18695 11.4295 1.23184V2.75157H7.75388V1.23184C7.75391 1.18695 7.74509 1.14249 7.72792 1.10101C7.71075 1.05953 7.68558 1.02184 7.65383 0.990098C7.62209 0.958354 7.5844 0.933178 7.54292 0.916011C7.50144 0.898843 7.45698 0.89002 7.41209 0.890045H5.95427C5.86362 0.890045 5.77669 0.926056 5.71259 0.990155C5.64849 1.05425 5.61248 1.14119 5.61248 1.23184V2.75157H1.23181C1.18692 2.75154 1.14246 2.76037 1.10098 2.77753C1.0595 2.7947 1.02181 2.81988 0.990067 2.85162C0.958324 2.88337 0.933148 2.92106 0.91598 2.96254C0.898812 3.00402 0.889989 3.04847 0.890015 3.09337V23.7682C0.889989 23.8131 0.898812 23.8575 0.91598 23.899C0.933148 23.9405 0.958324 23.9782 0.990067 24.0099C1.02181 24.0417 1.0595 24.0668 1.10098 24.084C1.14246 24.1012 1.18692 24.11 1.23181 24.11H23.7681C23.813 24.11 23.8575 24.1012 23.899 24.084C23.9405 24.0668 23.9781 24.0417 24.0099 24.0099C24.0416 23.9782 24.0668 23.9405 24.084 23.899C24.1011 23.8575 24.11 23.8131 24.1099 23.7682V3.09337C24.11 3.04847 24.1011 3.00402 24.084 2.96254C24.0668 2.92106 24.0416 2.88337 24.0099 2.85162C23.9781 2.81988 23.9405 2.7947 23.899 2.77753C23.8575 2.76037 23.813 2.75154 23.7681 2.75157ZM17.9297 1.57364H18.7035V4.61309H17.9297V1.57364ZM12.1127 1.57364H12.8865V4.61309H12.1131L12.1127 1.57364ZM6.29568 1.57364H7.07029V4.61309H6.29607L6.29568 1.57364ZM1.57361 3.43516H5.61248V4.95489C5.61248 5.04554 5.64849 5.13248 5.71259 5.19658C5.77669 5.26068 5.86362 5.29669 5.95427 5.29669H7.4117C7.45659 5.29671 7.50105 5.28789 7.54253 5.27072C7.58401 5.25355 7.6217 5.22838 7.65344 5.19663C7.68518 5.16489 7.71036 5.1272 7.72753 5.08572C7.7447 5.04424 7.75352 4.99978 7.75349 4.95489V3.43516H11.4295V4.95489C11.4294 4.99978 11.4383 5.04424 11.4554 5.08572C11.4726 5.1272 11.4978 5.16489 11.5295 5.19663C11.5613 5.22838 11.599 5.25355 11.6404 5.27072C11.6819 5.28789 11.7264 5.29671 11.7713 5.29669H13.2287C13.2736 5.29671 13.318 5.28789 13.3595 5.27072C13.401 5.25355 13.4387 5.22838 13.4704 5.19663C13.5022 5.16489 13.5274 5.1272 13.5445 5.08572C13.5617 5.04424 13.5705 4.99978 13.5705 4.95489V3.43516H17.2461V4.95489C17.246 4.99978 17.2549 5.04424 17.272 5.08572C17.2892 5.1272 17.3144 5.16489 17.3461 5.19663C17.3779 5.22838 17.4156 5.25355 17.457 5.27072C17.4985 5.28789 17.543 5.29671 17.5879 5.29669H19.0453C19.1359 5.29669 19.2229 5.26068 19.287 5.19658C19.3511 5.13248 19.3871 5.04554 19.3871 4.95489V3.43516H23.426V7.3463H1.57361V3.43516ZM1.57361 23.4264V8.02989H23.4263V23.4264H1.57361Z" fill="#FF9000"/>
<path d="M5.40232 9.57326C5.09201 9.57326 4.78867 9.66527 4.53066 9.83767C4.27265 10.0101 4.07155 10.2551 3.9528 10.5418C3.83405 10.8285 3.80298 11.1439 3.86352 11.4483C3.92406 11.7526 4.07349 12.0322 4.29291 12.2516C4.51233 12.471 4.79189 12.6204 5.09623 12.681C5.40058 12.7415 5.71604 12.7104 6.00273 12.5917C6.28942 12.473 6.53445 12.2719 6.70685 12.0138C6.87925 11.7558 6.97127 11.4525 6.97127 11.1422C6.97085 10.7262 6.80542 10.3274 6.51127 10.0332C6.21713 9.7391 5.8183 9.57367 5.40232 9.57326ZM5.40232 12.0275C5.22721 12.0275 5.05604 11.9756 4.91044 11.8783C4.76485 11.781 4.65137 11.6428 4.58436 11.481C4.51735 11.3192 4.49982 11.1412 4.53398 10.9695C4.56814 10.7977 4.65246 10.64 4.77628 10.5162C4.9001 10.3923 5.05786 10.308 5.2296 10.2739C5.40134 10.2397 5.57935 10.2572 5.74113 10.3242C5.90291 10.3912 6.04118 10.5047 6.13846 10.6503C6.23575 10.7959 6.28767 10.9671 6.28767 11.1422C6.28746 11.3769 6.19412 11.602 6.02813 11.768C5.86214 11.934 5.63707 12.0273 5.40232 12.0275Z" fill="#FF9000"/>
<path d="M10.1341 9.57326C9.82382 9.57326 9.52048 9.66527 9.26247 9.83767C9.00446 10.0101 8.80337 10.2551 8.68462 10.5418C8.56587 10.8285 8.53479 11.1439 8.59533 11.4483C8.65587 11.7526 8.8053 12.0322 9.02472 12.2516C9.24414 12.471 9.5237 12.6204 9.82804 12.681C10.1324 12.7415 10.4479 12.7104 10.7345 12.5917C11.0212 12.473 11.2663 12.2719 11.4387 12.0138C11.6111 11.7558 11.7031 11.4525 11.7031 11.1422C11.7026 10.7262 11.5372 10.3274 11.243 10.0333C10.9489 9.73917 10.5501 9.57372 10.1341 9.57326ZM10.1341 12.0275C9.95903 12.0275 9.78785 11.9756 9.64226 11.8783C9.49666 11.781 9.38318 11.6428 9.31617 11.481C9.24916 11.3192 9.23163 11.1412 9.26579 10.9695C9.29995 10.7977 9.38427 10.64 9.50809 10.5162C9.63191 10.3923 9.78967 10.308 9.96141 10.2739C10.1331 10.2397 10.3112 10.2572 10.4729 10.3242C10.6347 10.3912 10.773 10.5047 10.8703 10.6503C10.9676 10.7959 11.0195 10.9671 11.0195 11.1422C11.0192 11.3769 10.9259 11.602 10.7599 11.7679C10.5939 11.9339 10.3689 12.0273 10.1341 12.0275Z" fill="#FF9000"/>
<path d="M14.8658 9.57326C14.5555 9.57326 14.2522 9.66527 13.9942 9.83767C13.7361 10.0101 13.5351 10.2551 13.4163 10.5418C13.2976 10.8285 13.2665 11.1439 13.327 11.4483C13.3876 11.7526 13.537 12.0322 13.7564 12.2516C13.9758 12.471 14.2554 12.6204 14.5597 12.681C14.8641 12.7415 15.1795 12.7104 15.4662 12.5917C15.7529 12.473 15.9979 12.2719 16.1703 12.0138C16.3427 11.7558 16.4348 11.4525 16.4348 11.1422C16.4343 10.7262 16.2688 10.3274 15.9747 10.0333C15.6806 9.73917 15.2818 9.57372 14.8658 9.57326ZM14.8658 12.0275C14.6907 12.0275 14.5195 11.9756 14.3739 11.8783C14.2283 11.781 14.1149 11.6428 14.0479 11.481C13.9809 11.3192 13.9633 11.1412 13.9975 10.9695C14.0316 10.7977 14.116 10.64 14.2398 10.5162C14.3636 10.3923 14.5214 10.308 14.6931 10.2739C14.8648 10.2397 15.0428 10.2572 15.2046 10.3242C15.3664 10.3912 15.5047 10.5047 15.602 10.6503C15.6992 10.7959 15.7512 10.9671 15.7512 11.1422C15.751 11.3769 15.6576 11.602 15.4916 11.768C15.3256 11.934 15.1006 12.0273 14.8658 12.0275Z" fill="#FF9000"/>
<path d="M19.5976 9.57326C19.2873 9.57322 18.984 9.6652 18.7259 9.83758C18.4679 10.01 18.2668 10.255 18.148 10.5417C18.0292 10.8283 17.9981 11.1438 18.0586 11.4482C18.1191 11.7525 18.2686 12.0321 18.488 12.2516C18.7074 12.471 18.9869 12.6204 19.2913 12.681C19.5956 12.7416 19.9111 12.7105 20.1978 12.5917C20.4845 12.473 20.7296 12.2719 20.902 12.0139C21.0744 11.7559 21.1664 11.4525 21.1664 11.1422C21.166 10.7263 21.0006 10.3275 20.7065 10.0333C20.4124 9.73918 20.0136 9.57372 19.5976 9.57326ZM19.5976 12.0276C19.4225 12.0276 19.2513 11.9757 19.1057 11.8784C18.9601 11.7812 18.8466 11.6429 18.7795 11.4812C18.7125 11.3194 18.6949 11.1414 18.7291 10.9696C18.7632 10.7978 18.8475 10.6401 18.9713 10.5162C19.0952 10.3924 19.2529 10.3081 19.4246 10.2739C19.5964 10.2397 19.7744 10.2572 19.9362 10.3242C20.098 10.3912 20.2363 10.5047 20.3336 10.6503C20.4309 10.7959 20.4828 10.9671 20.4828 11.1422C20.4826 11.3769 20.3893 11.602 20.2233 11.768C20.0574 11.9339 19.8324 12.0273 19.5976 12.0276Z" fill="#FF9000"/>
<path d="M5.40234 14.1602C5.09198 14.1601 4.78858 14.2521 4.5305 14.4245C4.27243 14.5969 4.07128 14.842 3.95249 15.1287C3.8337 15.4155 3.80261 15.731 3.86315 16.0354C3.92369 16.3398 4.07314 16.6194 4.2926 16.8388C4.51206 17.0583 4.79167 17.2078 5.09607 17.2683C5.40047 17.3288 5.71599 17.2977 6.00272 17.179C6.28945 17.0602 6.53452 16.859 6.70692 16.6009C6.87933 16.3429 6.97133 16.0395 6.97129 15.7291C6.97082 15.3131 6.80538 14.9143 6.51124 14.6202C6.21711 14.3261 5.81831 14.1606 5.40234 14.1602ZM5.40234 16.6146C5.22719 16.6147 5.05596 16.5628 4.91031 16.4655C4.76465 16.3682 4.65112 16.2299 4.58407 16.0681C4.51701 15.9063 4.49945 15.7283 4.53359 15.5565C4.56774 15.3847 4.65207 15.2269 4.7759 15.103C4.89974 14.9791 5.05753 14.8948 5.22932 14.8606C5.4011 14.8264 5.57916 14.8439 5.74099 14.911C5.90281 14.978 6.04113 15.0915 6.13844 15.2371C6.23575 15.3827 6.2877 15.554 6.2877 15.7291C6.28723 15.9637 6.19378 16.1885 6.02782 16.3543C5.86186 16.5202 5.63694 16.6134 5.40234 16.6137V16.6146Z" fill="#FF9000"/>
<path d="M10.1342 14.1602C9.82379 14.1601 9.52039 14.2521 9.26231 14.4245C9.00424 14.5969 8.80309 14.842 8.6843 15.1287C8.56551 15.4155 8.53442 15.731 8.59496 16.0354C8.6555 16.3398 8.80495 16.6194 9.02441 16.8388C9.24387 17.0583 9.52348 17.2078 9.82788 17.2683C10.1323 17.3288 10.4478 17.2977 10.7345 17.179C11.0213 17.0602 11.2663 16.859 11.4387 16.6009C11.6111 16.3429 11.7031 16.0395 11.7031 15.7291C11.7026 15.3132 11.5371 14.9144 11.243 14.6203C10.9489 14.3262 10.5501 14.1607 10.1342 14.1602ZM10.1342 16.6146C9.959 16.6147 9.78777 16.5628 9.64212 16.4655C9.49646 16.3682 9.38293 16.2299 9.31588 16.0681C9.24882 15.9063 9.23126 15.7283 9.2654 15.5565C9.29955 15.3847 9.38388 15.2269 9.50771 15.103C9.63155 14.9791 9.78934 14.8948 9.96112 14.8606C10.1329 14.8264 10.311 14.8439 10.4728 14.911C10.6346 14.978 10.7729 15.0915 10.8702 15.2371C10.9676 15.3827 11.0195 15.554 11.0195 15.7291C11.019 15.9637 10.9255 16.1885 10.7596 16.3543C10.5936 16.5201 10.3687 16.6134 10.1342 16.6137V16.6146Z" fill="#FF9000"/>
<path d="M14.8658 14.1602C14.5554 14.1601 14.252 14.2521 13.9939 14.4245C13.7359 14.5969 13.5347 14.842 13.4159 15.1287C13.2971 15.4155 13.2661 15.731 13.3266 16.0354C13.3871 16.3398 13.5366 16.6194 13.756 16.8388C13.9755 17.0583 14.2551 17.2078 14.5595 17.2683C14.8639 17.3288 15.1794 17.2977 15.4662 17.179C15.7529 17.0602 15.998 16.859 16.1704 16.6009C16.3428 16.3429 16.4348 16.0395 16.4347 15.7291C16.4342 15.3132 16.2687 14.9144 15.9746 14.6203C15.6805 14.3262 15.2817 14.1607 14.8658 14.1602ZM14.8658 16.6146C14.6906 16.6147 14.5194 16.5628 14.3737 16.4655C14.2281 16.3682 14.1146 16.2299 14.0475 16.0681C13.9804 15.9063 13.9629 15.7283 13.997 15.5565C14.0312 15.3847 14.1155 15.2269 14.2393 15.103C14.3632 14.9791 14.521 14.8948 14.6928 14.8606C14.8645 14.8264 15.0426 14.8439 15.2044 14.911C15.3662 14.978 15.5046 15.0915 15.6019 15.2371C15.6992 15.3827 15.7511 15.554 15.7511 15.7291C15.7507 15.9637 15.6572 16.1885 15.4913 16.3543C15.3253 16.5202 15.1004 16.6134 14.8658 16.6137V16.6146Z" fill="#FF9000"/>
<path d="M19.5976 14.1602C19.2872 14.1601 18.9838 14.2521 18.7257 14.4244C18.4676 14.5968 18.2664 14.8419 18.1476 15.1286C18.0288 15.4153 17.9977 15.7308 18.0582 16.0353C18.1187 16.3397 18.2681 16.6193 18.4876 16.8388C18.707 17.0583 18.9867 17.2077 19.2911 17.2683C19.5955 17.3288 19.911 17.2978 20.1977 17.179C20.4845 17.0602 20.7296 16.859 20.902 16.601C21.0744 16.3429 21.1664 16.0395 21.1663 15.7291C21.1659 15.3132 21.0005 14.9144 20.7064 14.6203C20.4123 14.3262 20.0135 14.1607 19.5976 14.1602ZM19.5976 16.6146C19.4224 16.6147 19.2512 16.5629 19.1055 16.4656C18.9598 16.3683 18.8463 16.2301 18.7792 16.0683C18.7121 15.9065 18.6945 15.7284 18.7286 15.5566C18.7628 15.3848 18.8471 15.227 18.9709 15.1031C19.0947 14.9792 19.2525 14.8948 19.4243 14.8606C19.5961 14.8264 19.7742 14.8439 19.936 14.9109C20.0978 14.9779 20.2362 15.0915 20.3335 15.2371C20.4308 15.3827 20.4828 15.5539 20.4828 15.7291C20.4823 15.9637 20.3889 16.1885 20.223 16.3543C20.057 16.5201 19.8322 16.6134 19.5976 16.6137V16.6146Z" fill="#FF9000"/>
<path d="M5.40232 18.7453C5.09201 18.7453 4.78867 18.8373 4.53066 19.0097C4.27265 19.1821 4.07155 19.4272 3.9528 19.7138C3.83405 20.0005 3.80298 20.316 3.86352 20.6203C3.92406 20.9247 4.07349 21.2042 4.29291 21.4237C4.51233 21.6431 4.79189 21.7925 5.09623 21.8531C5.40058 21.9136 5.71604 21.8825 6.00273 21.7638C6.28942 21.645 6.53445 21.4439 6.70685 21.1859C6.87925 20.9279 6.97127 20.6246 6.97127 20.3143C6.97085 19.8983 6.80542 19.4994 6.51127 19.2053C6.21713 18.9112 5.8183 18.7457 5.40232 18.7453ZM5.40232 21.1996C5.22721 21.1996 5.05604 21.1477 4.91044 21.0504C4.76485 20.9531 4.65137 20.8148 4.58436 20.6531C4.51735 20.4913 4.49982 20.3133 4.53398 20.1415C4.56814 19.9698 4.65246 19.812 4.77628 19.6882C4.9001 19.5644 5.05786 19.4801 5.2296 19.4459C5.40134 19.4118 5.57935 19.4293 5.74113 19.4963C5.90291 19.5633 6.04118 19.6768 6.13846 19.8224C6.23575 19.968 6.28767 20.1392 6.28767 20.3143C6.28746 20.549 6.19412 20.7741 6.02813 20.9401C5.86214 21.1061 5.63707 21.1994 5.40232 21.1996Z" fill="#FF9000"/>
<path d="M10.1341 18.7453C9.82382 18.7453 9.52048 18.8373 9.26247 19.0097C9.00446 19.1821 8.80337 19.4272 8.68462 19.7138C8.56587 20.0005 8.53479 20.316 8.59533 20.6203C8.65587 20.9247 8.8053 21.2042 9.02472 21.4237C9.24414 21.6431 9.5237 21.7925 9.82804 21.8531C10.1324 21.9136 10.4479 21.8825 10.7345 21.7638C11.0212 21.645 11.2663 21.4439 11.4387 21.1859C11.6111 20.9279 11.7031 20.6246 11.7031 20.3143C11.7026 19.8983 11.5372 19.4995 11.243 19.2054C10.9489 18.9112 10.5501 18.7458 10.1341 18.7453ZM10.1341 21.1996C9.95903 21.1996 9.78785 21.1477 9.64226 21.0504C9.49666 20.9531 9.38318 20.8148 9.31617 20.6531C9.24916 20.4913 9.23163 20.3133 9.26579 20.1415C9.29995 19.9698 9.38427 19.812 9.50809 19.6882C9.63191 19.5644 9.78967 19.4801 9.96141 19.4459C10.1331 19.4118 10.3112 19.4293 10.4729 19.4963C10.6347 19.5633 10.773 19.6768 10.8703 19.8224C10.9676 19.968 11.0195 20.1392 11.0195 20.3143C11.0192 20.549 10.9259 20.774 10.7599 20.94C10.5939 21.106 10.3689 21.1993 10.1341 21.1996Z" fill="#FF9000"/>
<path d="M14.8658 18.7453C14.5555 18.7453 14.2522 18.8373 13.9942 19.0097C13.7361 19.1821 13.5351 19.4272 13.4163 19.7138C13.2976 20.0005 13.2665 20.316 13.327 20.6203C13.3876 20.9247 13.537 21.2042 13.7564 21.4237C13.9758 21.6431 14.2554 21.7925 14.5597 21.8531C14.8641 21.9136 15.1795 21.8825 15.4662 21.7638C15.7529 21.645 15.9979 21.4439 16.1703 21.1859C16.3427 20.9279 16.4348 20.6246 16.4348 20.3143C16.4343 19.8983 16.2688 19.4995 15.9747 19.2054C15.6806 18.9112 15.2818 18.7458 14.8658 18.7453ZM14.8658 21.1996C14.6907 21.1996 14.5195 21.1477 14.3739 21.0504C14.2283 20.9531 14.1149 20.8148 14.0479 20.6531C13.9809 20.4913 13.9633 20.3133 13.9975 20.1415C14.0316 19.9698 14.116 19.812 14.2398 19.6882C14.3636 19.5644 14.5214 19.4801 14.6931 19.4459C14.8648 19.4118 15.0428 19.4293 15.2046 19.4963C15.3664 19.5633 15.5047 19.6768 15.602 19.8224C15.6992 19.968 15.7512 20.1392 15.7512 20.3143C15.751 20.549 15.6576 20.7741 15.4916 20.9401C15.3256 21.1061 15.1006 21.1994 14.8658 21.1996Z" fill="#FF9000"/>
<path d="M19.5976 18.7453C19.2873 18.7453 18.984 18.8373 18.7259 19.0096C18.4679 19.182 18.2668 19.427 18.148 19.7137C18.0292 20.0004 17.9981 20.3159 18.0586 20.6202C18.1191 20.9246 18.2686 21.2042 18.488 21.4236C18.7074 21.6431 18.9869 21.7925 19.2913 21.8531C19.5956 21.9136 19.9111 21.8825 20.1978 21.7638C20.4845 21.6451 20.7296 21.444 20.902 21.1859C21.0744 20.9279 21.1664 20.6246 21.1664 20.3143C21.166 19.8983 21.0006 19.4995 20.7065 19.2054C20.4124 18.9112 20.0136 18.7458 19.5976 18.7453ZM19.5976 21.1996C19.4225 21.1997 19.2513 21.1478 19.1057 21.0505C18.9601 20.9532 18.8466 20.815 18.7795 20.6532C18.7125 20.4914 18.6949 20.3134 18.7291 20.1417C18.7632 19.9699 18.8475 19.8121 18.9713 19.6883C19.0952 19.5645 19.2529 19.4801 19.4246 19.4459C19.5964 19.4118 19.7744 19.4293 19.9362 19.4963C20.098 19.5633 20.2363 19.6768 20.3336 19.8224C20.4309 19.968 20.4828 20.1392 20.4828 20.3143C20.4826 20.549 20.3893 20.774 20.2233 20.94C20.0574 21.106 19.8324 21.1994 19.5976 21.1996Z" fill="#FF9000"/>
</svg>
