<svg width="25" height="25" viewBox="0 0 25 25" fill="none" xmlns="http://www.w3.org/2000/svg">
<g clip-path="url(#clip0_9_101)">
<path d="M21.8645 5.52505C21.7414 4.08589 20.8086 3.15317 19.3696 3.03007C19.1697 3.01298 18.9939 3.16113 18.9768 3.36093C18.9597 3.56069 19.1079 3.73662 19.3077 3.75371C20.3967 3.84692 21.0477 4.49805 21.1409 5.58696C21.1485 5.67569 21.1874 5.75425 21.2458 5.81265C21.319 5.88574 21.4227 5.9273 21.5337 5.91782C21.7335 5.90069 21.8816 5.72486 21.8645 5.52505Z" fill="#FF9000"/>
<path d="M23.7371 1.15767C23.3947 0.815335 22.9217 0.644486 22.4397 0.688529L21.8762 0.74014C19.704 0.93931 17.7212 1.95699 16.2931 3.60586L15.4259 4.60704L13.4256 3.77803L13.5326 3.67105C13.8512 3.35245 13.8512 2.83409 13.5326 2.51553L12.9265 1.90918C12.6079 1.59073 12.0895 1.59063 11.7709 1.90918L10.9346 2.74551L9.973 2.34698L10.214 2.10596C10.5326 1.78736 10.5326 1.26905 10.214 0.950492L9.60776 0.344241C9.28911 0.0256866 8.77075 0.0257843 8.45225 0.344241L7.48193 1.31455L5.84692 0.636917C5.07187 0.315677 4.18784 0.491507 3.59458 1.08467L2.5063 2.17295C2.27529 2.40396 2.1563 2.72339 2.17983 3.04927C2.20337 3.37515 2.36709 3.67413 2.62886 3.86959L10.7888 9.96046L8.06514 13.105C7.93384 13.2566 7.95029 13.4859 8.10185 13.6172C8.17056 13.6767 8.25518 13.7059 8.33945 13.7059C8.44111 13.7059 8.54224 13.6634 8.61406 13.5805L11.5933 10.1409C11.5934 10.1408 11.5934 10.1408 11.5934 10.1408L13.353 8.10929L16.842 4.08125C18.1467 2.57496 19.9581 1.64527 21.9425 1.46333L22.506 1.41172C22.7731 1.38726 23.0342 1.48184 23.2235 1.6712C23.4129 1.8605 23.5075 2.12203 23.483 2.38873L23.4314 2.9522C23.3117 4.25777 22.8559 5.519 22.1131 6.59937C21.9995 6.76466 22.0414 6.99073 22.2066 7.10435C22.3719 7.21802 22.5979 7.17608 22.7116 7.01085C23.5246 5.82818 24.0236 4.44766 24.1546 3.01851L24.2062 2.45503C24.2504 1.9729 24.0794 1.5 23.7371 1.15767ZM12.2845 2.42281C12.3197 2.38736 12.3774 2.38731 12.4128 2.42281L13.019 3.02901C13.0544 3.06436 13.0544 3.12203 13.0191 3.15738L12.6995 3.47696L12.4046 3.35474L11.6607 3.04644L12.2845 2.42281ZM8.96582 0.857816C9.00112 0.822367 9.05879 0.822318 9.09419 0.857816L9.70039 1.46402C9.73579 1.49937 9.73579 1.55699 9.70039 1.59234L9.24683 2.04595L8.2081 1.61548L8.96582 0.857816ZM11.2656 9.41002L3.06328 3.28755C2.96914 3.21734 2.9127 3.11412 2.9042 2.99698C2.89575 2.87984 2.93677 2.76958 3.01987 2.68658L4.10811 1.59834C4.36519 1.34131 4.70635 1.20513 5.05444 1.20513C5.22734 1.20513 5.40205 1.23877 5.56895 1.30791L14.9248 5.18541L11.2656 9.41002Z" fill="#FF9000"/>
<path d="M24.7611 15.4976L24.1549 14.8913C23.8362 14.5728 23.3179 14.5729 22.9994 14.8913L22.6992 15.1915L22.239 14.0809L22.9855 13.3344C23.3041 13.0158 23.3041 12.4975 22.9855 12.1789L22.3793 11.5726C22.0607 11.2541 21.5423 11.2541 21.2238 11.5727L21.2066 11.5898L20.3171 9.44346L21.289 8.60157C21.3608 8.53941 21.4323 8.4753 21.5017 8.41099C21.6488 8.27466 21.6575 8.04488 21.5211 7.89785C21.3849 7.75078 21.1551 7.74209 21.008 7.87842C20.9445 7.93721 20.8791 7.9958 20.8135 8.05264L10.2037 17.2424C9.64913 17.7228 9.07159 18.1748 8.47383 18.5977C7.64844 19.1817 6.77618 19.714 5.8813 20.18C5.88111 20.1801 5.88091 20.1803 5.88072 20.1804C5.64952 20.3008 5.41626 20.4174 5.18081 20.5297C4.89302 20.6671 4.63243 20.558 4.48452 20.4102C4.33667 20.2623 4.22759 20.0017 4.3649 19.7138C4.48457 19.463 4.60948 19.2148 4.73833 18.9687C4.78662 18.8765 4.8354 18.7844 4.88511 18.6926C4.89629 18.672 4.90777 18.6515 4.919 18.6309C4.96812 18.5409 5.01763 18.4511 5.06807 18.3617C5.07862 18.343 5.08941 18.3244 5.1 18.3057C5.15181 18.2144 5.20411 18.1234 5.25723 18.0328C5.26709 18.016 5.2771 17.9993 5.28697 17.9825C5.34112 17.8906 5.39585 17.7991 5.45137 17.708C5.46143 17.6915 5.47163 17.6751 5.48174 17.6586C5.53702 17.5683 5.59292 17.4784 5.64947 17.3889C5.66099 17.3706 5.67261 17.3525 5.68418 17.3343C5.73931 17.2476 5.79502 17.1613 5.85127 17.0754C5.86519 17.0543 5.87915 17.0331 5.89312 17.012C5.94732 16.9298 6.0021 16.8482 6.05733 16.7669C6.07369 16.7428 6.09014 16.7187 6.1066 16.6947C6.16045 16.6161 6.2148 16.5379 6.26953 16.4602C6.65884 15.9073 7.07266 15.3716 7.51094 14.8556C7.64073 14.7027 7.62212 14.4736 7.46924 14.3438C7.31626 14.214 7.08726 14.2326 6.95738 14.3855C6.58086 14.8288 6.22193 15.2863 5.88028 15.7562L2.59868 14.2707C1.97954 13.9903 1.24102 14.1249 0.760695 14.6054L0.202052 15.1641C0.0606946 15.3054 -0.0123035 15.5009 0.00171023 15.7004C0.0157727 15.8999 0.11548 16.0831 0.275246 16.2032L3.93033 18.9524C3.85528 19.1012 3.78125 19.2506 3.70943 19.4011C3.46201 19.9197 3.5647 20.5174 3.971 20.9237C4.23018 21.1829 4.56719 21.3185 4.91192 21.3185C5.10757 21.3185 5.30577 21.2748 5.49356 21.1852C5.6441 21.1133 5.79346 21.0393 5.94229 20.9643L8.69141 24.6194C8.81158 24.7792 8.99483 24.8789 9.19424 24.8929C9.2105 24.8941 9.22667 24.8946 9.24283 24.8946C9.42515 24.8946 9.60064 24.8224 9.73052 24.6925L10.2891 24.134C10.7695 23.6536 10.9041 22.9149 10.6239 22.296L9.13858 19.0148C9.66871 18.6293 10.1828 18.2213 10.6791 17.7914L14.9446 14.0968L21.0928 22.3336C21.2883 22.5954 21.5873 22.7591 21.9132 22.7826C21.9403 22.7845 21.9674 22.7855 21.9944 22.7855C22.2916 22.7855 22.5777 22.6678 22.7895 22.4561L23.8777 21.3679C24.471 20.7747 24.6467 19.8906 24.3256 19.1156L23.7317 17.6826L24.7611 16.6531C25.0797 16.3345 25.0797 15.8162 24.7611 15.4976ZM0.745216 15.648L1.27427 15.119C1.54214 14.8511 1.95406 14.7761 2.29917 14.9324L5.45484 16.3609C5.44805 16.3709 5.44141 16.381 5.43467 16.391C5.39527 16.4492 5.35616 16.5076 5.31724 16.5661C5.2983 16.5946 5.2795 16.6233 5.2607 16.6519C5.12837 16.8532 4.99917 17.0565 4.87315 17.2617C4.85743 17.2874 4.84161 17.3129 4.82598 17.3386C4.78872 17.3998 4.75181 17.4612 4.71514 17.5228C4.69615 17.5546 4.67735 17.5866 4.65855 17.6185C4.62315 17.6786 4.5878 17.7386 4.55293 17.799C4.53516 17.8297 4.51778 17.8607 4.50015 17.8915C4.44248 17.9924 4.3856 18.0938 4.32945 18.1956C4.31021 18.2305 4.29063 18.2653 4.27159 18.3003L0.745216 15.648ZM9.96231 22.5955C10.1185 22.9406 10.0436 23.3525 9.77559 23.6204L9.24664 24.1494L6.59434 20.6231C6.65147 20.592 6.7083 20.5603 6.76519 20.5286C6.84644 20.4835 6.92735 20.4379 7.00801 20.3918C7.0461 20.37 7.08418 20.3483 7.12217 20.3263C7.18291 20.2911 7.24341 20.2557 7.30381 20.22C7.33404 20.2021 7.36416 20.184 7.39434 20.166C7.60245 20.0417 7.80855 19.9142 8.01265 19.7834C8.03931 19.7663 8.06602 19.7492 8.09263 19.732C8.15567 19.6913 8.21861 19.6503 8.28125 19.6089C8.3064 19.5923 8.3314 19.5755 8.3565 19.5588C8.41573 19.5193 8.47515 19.4802 8.53399 19.4402L9.96231 22.5955ZM21.7373 12.0862C21.7726 12.0508 21.8302 12.0508 21.8656 12.0862L22.4718 12.6925C22.5072 12.7278 22.5072 12.7855 22.4718 12.8208L21.938 13.3547L21.6108 12.5653L21.5075 12.316L21.7373 12.0862ZM23.3641 20.8543L22.2759 21.9425C22.1929 22.0255 22.0828 22.0662 21.9655 22.0583C21.8483 22.0498 21.7451 21.9933 21.6749 21.8992L15.4951 13.62L16.7903 12.4982L19.7384 9.94458L23.6546 19.3936C23.863 19.8962 23.7489 20.4696 23.3641 20.8543ZM24.2475 16.1395L23.4307 16.9564L23.0002 15.9176L23.513 15.4048C23.5483 15.3694 23.6059 15.3694 23.6413 15.4048L24.2475 16.011V16.0111C24.2829 16.0465 24.2829 16.1041 24.2475 16.1395Z" fill="#FF9000"/>
</g>
<defs>
<clipPath id="clip0_9_101">
<rect width="25" height="25" fill="white"/>
</clipPath>
</defs>
</svg>
