<svg width="25" height="25" viewBox="0 0 25 25" fill="none" xmlns="http://www.w3.org/2000/svg">
<path d="M12.5 0.390625C10.105 0.390625 7.76378 1.10083 5.7724 2.43142C3.78102 3.76202 2.22893 5.65324 1.3124 7.86594C0.395872 10.0786 0.156066 12.5134 0.623309 14.8624C1.09055 17.2114 2.24386 19.3691 3.93739 21.0626C5.63091 22.7561 7.7886 23.9095 10.1376 24.3767C12.4866 24.8439 14.9214 24.6041 17.1341 23.6876C19.3468 22.7711 21.238 21.219 22.5686 19.2276C23.8992 17.2362 24.6094 14.895 24.6094 12.5C24.6058 9.28951 23.3288 6.21155 21.0586 3.94139C18.7885 1.67122 15.7105 0.394254 12.5 0.390625ZM12.5 23.8281C10.2595 23.8281 8.06934 23.1637 6.20644 21.919C4.34354 20.6742 2.89158 18.905 2.03418 16.8351C1.17678 14.7651 0.952449 12.4874 1.38955 10.29C1.82665 8.09255 2.90555 6.07407 4.48981 4.48981C6.07408 2.90554 8.09256 1.82664 10.29 1.38954C12.4874 0.952444 14.7652 1.17678 16.8351 2.03418C18.905 2.89158 20.6743 4.34353 21.919 6.20643C23.1638 8.06933 23.8281 10.2595 23.8281 12.5C23.8247 15.5034 22.6301 18.3827 20.5064 20.5064C18.3827 22.6301 15.5034 23.8247 12.5 23.8281Z" fill="#FF9000"/>
<path d="M20.9326 18.2628C18.6732 16.0701 15.6485 14.8438 12.5 14.8438C9.35152 14.8438 6.32685 16.0701 4.06743 18.2628C3.99393 18.3353 3.95206 18.4338 3.95097 18.537C3.94987 18.6401 3.98962 18.7395 4.06156 18.8135C4.1335 18.8874 4.23177 18.9299 4.33493 18.9317C4.43809 18.9334 4.53775 18.8943 4.61216 18.8228C6.72574 16.772 9.55498 15.625 12.5 15.625C15.445 15.625 18.2743 16.772 20.3879 18.8228C20.4623 18.8943 20.5619 18.9334 20.6651 18.9317C20.7682 18.9299 20.8665 18.8874 20.9384 18.8135C21.0104 18.7395 21.0501 18.6401 21.049 18.537C21.0479 18.4338 21.0061 18.3353 20.9326 18.2628Z" fill="#FF9000"/>
<path d="M12.5 13.2813C13.4271 13.2813 14.3334 13.0063 15.1043 12.4913C15.8751 11.9762 16.4759 11.2441 16.8307 10.3876C17.1855 9.53105 17.2783 8.58855 17.0975 7.67927C16.9166 6.76998 16.4701 5.93475 15.8146 5.27919C15.159 4.62363 14.3238 4.17719 13.4145 3.99632C12.5052 3.81545 11.5627 3.90828 10.7062 4.26307C9.84965 4.61785 9.11756 5.21866 8.60249 5.98952C8.08742 6.76037 7.8125 7.66665 7.8125 8.59375C7.81389 9.83653 8.30819 11.028 9.18697 11.9068C10.0657 12.7856 11.2572 13.2799 12.5 13.2813ZM12.5 4.6875C13.2726 4.6875 14.0278 4.9166 14.6702 5.34582C15.3126 5.77505 15.8133 6.38512 16.1089 7.0989C16.4046 7.81267 16.4819 8.59809 16.3312 9.35582C16.1805 10.1136 15.8085 10.8096 15.2622 11.3559C14.7159 11.9022 14.0198 12.2742 13.2621 12.4249C12.5043 12.5757 11.7189 12.4983 11.0052 12.2027C10.2914 11.907 9.6813 11.4063 9.25208 10.7639C8.82285 10.1216 8.59375 9.36634 8.59375 8.59375C8.59493 7.55811 9.00686 6.56523 9.73917 5.83292C10.4715 5.10061 11.4644 4.68868 12.5 4.6875Z" fill="#FF9000"/>
</svg>
