<svg width="203" height="60" viewBox="0 0 203 60" fill="none" xmlns="http://www.w3.org/2000/svg">
    <path d="M195 0H7.5C3.35786 0 0 3.35786 0 7.5V52.5C0 56.6421 3.35786 60 7.5 60H195C199.142 60 202.5 56.6421 202.5 52.5V7.5C202.5 3.35786 199.142 0 195 0Z" fill="black"/>
    <path d="M48.4035 30.4518C48.4365 27.9078 49.77 25.5573 51.939 24.2238C50.565 22.2618 48.3465 21.0618 45.9525 20.9868C43.434 20.7228 40.992 22.4943 39.708 22.4943C38.4 22.4943 36.423 21.0138 34.2945 21.0573C31.494 21.1473 28.947 22.7013 27.585 25.1493C24.684 30.1713 26.8485 37.5528 29.6265 41.6133C31.017 43.6008 32.6415 45.8223 34.7685 45.7428C36.849 45.6558 37.626 44.4168 40.137 44.4168C42.6255 44.4168 43.3545 45.7428 45.5235 45.6933C47.7555 45.6573 49.1625 43.6968 50.505 41.6898C51.504 40.2738 52.272 38.7078 52.782 37.0503C50.13 35.9283 48.4065 33.3303 48.4035 30.4518Z" fill="white"/>
    <path d="M44.3055 18.3166C45.5235 16.8556 46.122 14.9776 45.978 13.0801C44.118 13.2751 42.4005 14.1646 41.166 15.5701C39.948 16.9561 39.33 18.7711 39.45 20.6116C41.334 20.6311 43.1235 19.7851 44.3055 18.3166Z" fill="white"/>
    <path d="M74.703 40.7102H67.6035L65.898 45.7442H62.8905L69.615 27.1172H72.7395L79.464 45.7442H76.4055L74.7015 40.7102H74.703ZM68.3385 38.3867H73.9665L71.1915 30.2162H71.1135L68.337 38.3867H68.3385ZM93.99 38.9552C93.99 43.1747 91.731 45.8867 88.323 45.8867C86.5605 45.9782 84.9015 45.0557 84.0495 43.5107H83.985V50.2367H81.198V32.1632H83.8965V34.4222H83.9475C84.837 32.8862 86.4975 31.9637 88.272 32.0207C91.719 32.0207 93.9915 34.7447 93.9915 38.9537L93.99 38.9552ZM91.125 38.9552C91.125 36.2057 89.7045 34.3982 87.5355 34.3982C85.4055 34.3982 83.973 36.2432 83.973 38.9552C83.973 41.6912 85.4055 43.5242 87.5355 43.5242C89.703 43.5242 91.125 41.7302 91.125 38.9552ZM108.937 38.9552C108.937 43.1747 106.678 45.8867 103.27 45.8867C101.508 45.9782 99.849 45.0557 98.997 43.5107H98.9325V50.2367H96.1455V32.1632H98.844V34.4222H98.895C99.7845 32.8862 101.445 31.9637 103.219 32.0207C106.666 32.0207 108.939 34.7447 108.939 38.9537L108.937 38.9552ZM106.072 38.9552C106.072 36.2057 104.652 34.3982 102.483 34.3982C100.353 34.3982 98.9205 36.2432 98.9205 38.9552C98.9205 41.6912 100.353 43.5242 102.483 43.5242C104.65 43.5242 106.072 41.7302 106.072 38.9552Z" fill="white"/>
    <path d="M118.815 40.5542C119.022 42.4007 120.816 43.6142 123.269 43.6142C125.618 43.6142 127.308 42.4007 127.308 40.7357C127.308 39.2897 126.288 38.4242 123.875 37.8302L121.461 37.2482C118.041 36.4217 116.453 34.8227 116.453 32.2262C116.453 29.0117 119.253 26.8052 123.231 26.8052C127.167 26.8052 129.866 29.0132 129.956 32.2262H127.142C126.974 30.3677 125.436 29.2457 123.191 29.2457C120.945 29.2457 119.409 30.3812 119.409 32.0327C119.409 33.3497 120.39 34.1252 122.792 34.7177L124.844 35.2217C128.666 36.1262 130.253 37.6607 130.253 40.3847C130.253 43.8692 127.476 46.0517 123.062 46.0517C118.931 46.0517 116.142 43.9202 115.962 40.5512H118.815V40.5542ZM136.269 28.9502V32.1647H138.852V34.3727H136.269V41.8592C136.269 43.0217 136.787 43.5647 137.922 43.5647C138.228 43.5587 138.534 43.5377 138.839 43.5002V45.6947C138.329 45.7907 137.81 45.8327 137.291 45.8237C134.541 45.8237 133.469 44.7917 133.469 42.1577V34.3742H131.495V32.1662H133.469V28.9517H136.269V28.9502Z" fill="white"/>
    <path d="M140.348 38.9551C140.348 34.6816 142.865 31.9966 146.789 31.9966C150.726 31.9966 153.231 34.6816 153.231 38.9551C153.231 43.2391 150.74 45.9136 146.789 45.9136C142.839 45.9136 140.348 43.2406 140.348 38.9551ZM150.39 38.9551C150.39 36.0241 149.046 34.2946 146.789 34.2946C144.53 34.2946 143.189 36.0376 143.189 38.9551C143.189 41.8981 144.531 43.6141 146.789 43.6141C149.048 43.6141 150.39 41.8966 150.39 38.9551Z" fill="white"/>
    <path d="M155.529 32.1629H158.187V34.4744H158.251C158.622 32.9864 159.985 31.9619 161.518 32.0204C161.839 32.0189 162.16 32.0549 162.474 32.1239V34.7309C162.069 34.6064 161.646 34.5494 161.222 34.5629C160.403 34.5299 159.609 34.8569 159.051 35.4569C158.493 36.0569 158.224 36.8729 158.317 37.6874V45.7425H155.53V32.1614L155.529 32.1629Z" fill="white"/>
    <path d="M175.326 41.7556C174.951 44.2216 172.55 45.9121 169.479 45.9121C165.528 45.9121 163.076 43.2646 163.076 39.0181C163.076 34.7581 165.541 31.9951 169.361 31.9951C173.118 31.9951 175.481 34.5766 175.481 38.6941V39.6496H165.888V39.8176C165.798 40.8286 166.148 41.8291 166.847 42.5656C167.546 43.3021 168.527 43.7011 169.542 43.6651C170.895 43.7911 172.17 43.0156 172.679 41.7556H175.326ZM165.903 37.7026H172.692C172.743 36.7936 172.412 35.9056 171.78 35.2516C171.147 34.5976 170.271 34.2361 169.362 34.2556C168.445 34.2496 167.564 34.6111 166.914 35.2591C166.265 35.9056 165.9 36.7861 165.903 37.7026Z" fill="white"/>
    <path d="M67.989 13.0962C69.1725 13.0107 70.332 13.4622 71.148 14.3232C71.964 15.1842 72.351 16.3662 72.201 17.5437C72.201 20.4027 70.656 22.0467 67.989 22.0467H64.7565V13.0962H67.989ZM66.1455 20.7807H67.833C68.679 20.8317 69.5025 20.4987 70.0755 19.8732C70.6485 19.2492 70.9095 18.4002 70.785 17.5617C70.899 16.7277 70.635 15.8847 70.0635 15.2652C69.492 14.6457 68.6745 14.3142 67.833 14.3607H66.1455V20.7807ZM73.7715 18.6657C73.656 17.4552 74.2365 16.2837 75.27 15.6417C76.3035 14.9997 77.6115 14.9997 78.645 15.6417C79.6785 16.2837 80.259 17.4552 80.1435 18.6657C80.262 19.8777 79.6815 21.0522 78.6465 21.6942C77.6115 22.3362 76.3035 22.3362 75.2685 21.6942C74.2335 21.0522 73.6545 19.8777 73.7715 18.6657ZM78.771 18.6657C78.771 17.2017 78.114 16.3452 76.959 16.3452C75.801 16.3452 75.1485 17.2017 75.1485 18.6657C75.1485 20.1417 75.801 20.9907 76.959 20.9907C78.114 20.9907 78.771 20.1357 78.771 18.6657Z" fill="white"/>
    <path d="M88.6095 22.0468H87.2265L85.83 17.0728H85.725L84.3345 22.0468H82.965L81.1035 15.2923H82.455L83.6655 20.4463H83.7645L85.1535 15.2923H86.433L87.822 20.4463H87.927L89.1315 15.2923H90.465L88.6095 22.0468ZM92.031 15.2923H93.3135V16.3648H93.4125C93.759 15.5743 94.569 15.0913 95.4285 15.1618C96.0945 15.1123 96.747 15.3673 97.2015 15.8563C97.656 16.3453 97.8645 17.0143 97.767 17.6743V22.0468H96.4335V18.0088C96.4335 16.9228 95.9625 16.3828 94.9755 16.3828C94.524 16.3618 94.086 16.5388 93.7755 16.8673C93.465 17.1958 93.315 17.6443 93.363 18.0943V22.0453H92.0295V15.2908L92.031 15.2923ZM99.891 12.6553H101.225V22.0468H99.891V12.6553Z" fill="white"/>
    <path d="M103.077 18.6658C102.962 17.4553 103.542 16.2838 104.576 15.6418C105.609 14.9998 106.917 14.9998 107.951 15.6418C108.984 16.2838 109.565 17.4553 109.449 18.6658C109.568 19.8778 108.987 21.0523 107.952 21.6943C106.917 22.3363 105.608 22.3363 104.574 21.6943C103.539 21.0523 102.96 19.8778 103.077 18.6658ZM108.077 18.6658C108.077 17.2018 107.42 16.3453 106.265 16.3453C105.107 16.3453 104.454 17.2018 104.454 18.6658C104.454 20.1418 105.107 20.9908 106.265 20.9908C107.42 20.9908 108.077 20.1358 108.077 18.6658ZM110.852 20.1358C110.852 18.9193 111.757 18.2188 113.364 18.1198L115.194 18.0148V17.4313C115.194 16.7173 114.723 16.3153 113.811 16.3153C113.067 16.3153 112.551 16.5883 112.404 17.0653H111.114C111.25 15.9058 112.341 15.1603 113.874 15.1603C115.568 15.1603 116.523 16.0033 116.523 17.4298V22.0453H115.241V21.0958H115.136C114.699 21.7888 113.925 22.1938 113.106 22.1563C112.533 22.2163 111.96 22.0303 111.533 21.6448C111.104 21.2593 110.858 20.7103 110.856 20.1343L110.852 20.1358ZM115.194 19.5583V18.9943L113.544 19.0993C112.614 19.1623 112.192 19.4773 112.192 20.0728C112.192 20.6803 112.72 21.0343 113.445 21.0343C113.874 21.0778 114.303 20.9458 114.633 20.6668C114.963 20.3878 115.165 19.9888 115.194 19.5583ZM118.272 18.6658C118.272 16.5313 119.369 15.1798 121.076 15.1798C121.937 15.1408 122.745 15.6013 123.147 16.3648H123.246V12.6553H124.58V22.0468H123.301V20.9803H123.196C122.763 21.7363 121.947 22.1908 121.076 22.1593C119.357 22.1593 118.272 20.8078 118.272 18.6673V18.6658ZM119.649 18.6658C119.649 20.0983 120.324 20.9608 121.454 20.9608C122.577 20.9608 123.271 20.0863 123.271 18.6718C123.271 17.2648 122.57 16.3768 121.454 16.3768C120.332 16.3768 119.649 17.2453 119.649 18.6658ZM130.095 18.6658C129.98 17.4553 130.56 16.2838 131.593 15.6418C132.627 14.9998 133.935 14.9998 134.968 15.6418C136.002 16.2838 136.582 17.4553 136.467 18.6658C136.585 19.8778 136.005 21.0523 134.97 21.6943C133.935 22.3363 132.627 22.3363 131.592 21.6943C130.557 21.0523 129.978 19.8778 130.095 18.6658ZM135.095 18.6658C135.095 17.2018 134.438 16.3453 133.282 16.3453C132.125 16.3453 131.472 17.2018 131.472 18.6658C131.472 20.1418 132.125 20.9908 133.282 20.9908C134.438 20.9908 135.095 20.1358 135.095 18.6658Z" fill="white"/>
    <path d="M138.253 15.2923H139.536V16.3648H139.635C139.981 15.5743 140.791 15.0913 141.651 15.1618C142.317 15.1123 142.969 15.3673 143.424 15.8563C143.878 16.3453 144.087 17.0143 143.989 17.6743V22.0468H142.656V18.0088C142.656 16.9228 142.185 16.3828 141.198 16.3828C140.747 16.3618 140.309 16.5388 139.998 16.8673C139.688 17.1958 139.537 17.6443 139.585 18.0943V22.0453H138.252V15.2908L138.253 15.2923ZM151.522 13.6108V15.3238H152.986V16.4473H151.522V19.9198C151.522 20.6278 151.814 20.9368 152.478 20.9368L152.986 20.9053V22.0153C152.746 22.0588 152.505 22.0813 152.262 22.0828C150.78 22.0828 150.189 21.5608 150.189 20.2588V16.4443H149.117V15.3208H150.189V13.6078H151.524L151.522 13.6108ZM154.808 12.6553H156.129V16.3768H156.234C156.597 15.5803 157.42 15.0958 158.293 15.1663C158.955 15.1303 159.598 15.3913 160.048 15.8788C160.498 16.3663 160.707 17.0278 160.62 17.6848V22.0453H159.285V18.0133C159.285 16.9348 158.782 16.3873 157.84 16.3873C157.377 16.3498 156.919 16.5178 156.592 16.8478C156.264 17.1778 156.099 17.6353 156.141 18.0988V22.0438H154.808V12.6523V12.6553Z" fill="white"/>
    <path d="M168.392 20.2228C168.018 21.4963 166.785 22.3198 165.465 22.1773C164.565 22.2013 163.7 21.8278 163.098 21.1558C162.497 20.4838 162.222 19.5823 162.345 18.6898C162.225 17.7943 162.5 16.8913 163.097 16.2148C163.694 15.5383 164.556 15.1528 165.459 15.1603C167.339 15.1603 168.473 16.4443 168.473 18.5653V19.0303H163.703V19.1053C163.661 19.6063 163.832 20.1028 164.174 20.4703C164.516 20.8393 164.999 21.0448 165.501 21.0403C166.154 21.1183 166.788 20.7958 167.108 20.2213H168.39L168.392 20.2228ZM163.703 18.0463H167.113C167.148 17.5873 166.986 17.1358 166.67 16.8028C166.353 16.4698 165.911 16.2853 165.45 16.2958C164.984 16.2898 164.537 16.4728 164.207 16.8013C163.877 17.1313 163.695 17.5798 163.701 18.0448L163.703 18.0463Z" fill="white"/>
</svg>
