<svg width="1440" height="190" viewBox="0 0 1440 190" fill="none" xmlns="http://www.w3.org/2000/svg">
    <path opacity="0.6" d="M1505 188.947C1503.59 176.747 1497.71 165.486 1488.47 157.31C1479.24 149.134 1467.29 144.615 1454.91 144.613C1451.81 144.613 1448.72 144.9 1445.68 145.47C1440.64 140.177 1434.5 136.042 1427.68 133.354C1428.03 130.969 1428.2 128.562 1428.21 126.152C1428.21 115.457 1424.76 105.043 1418.36 96.4372C1411.96 87.8317 1402.94 81.4883 1392.64 78.3378C1382.34 75.1872 1371.28 75.3956 1361.11 78.9323C1350.93 82.469 1342.17 89.1476 1336.1 97.9882C1325.11 93.7559 1312.97 93.4776 1301.8 97.2016C1290.62 100.926 1281.11 108.417 1274.93 118.372C1272.32 119.254 1269.78 120.342 1267.35 121.624C1261.47 111.846 1252.42 104.343 1241.67 100.348C1237.67 93.7692 1232.19 88.1925 1225.67 84.0517C1219.15 79.9108 1211.75 77.317 1204.05 76.4716C1196.35 75.6261 1188.56 76.5517 1181.28 79.1767C1174 81.8016 1167.43 86.0554 1162.08 91.6075C1152.32 88.7885 1141.94 88.9632 1132.29 92.1085C1122.65 95.2539 1114.18 101.223 1108.02 109.229C1102.12 104.963 1095.35 102.021 1088.19 100.608C1081.03 99.1952 1073.65 99.3452 1066.55 101.048C1060.85 94.3165 1053.47 89.1927 1045.14 86.1919C1036.81 83.1911 1027.83 82.4194 1019.11 83.9542C1010.38 85.4889 1002.22 89.2762 995.441 94.9346C988.661 100.593 983.504 107.923 980.487 116.187C972.114 109.397 962.241 104.666 951.674 102.38C941.106 100.095 930.144 100.32 919.681 103.037C909.218 105.753 899.55 110.885 891.467 118.014C883.384 125.142 877.115 134.065 873.17 144.054C872.551 139.454 870.949 135.038 868.472 131.101C865.995 127.164 862.7 123.797 858.807 121.224C854.913 118.651 850.511 116.932 845.894 116.181C841.277 115.43 836.552 115.664 832.034 116.869C832.034 116.502 832.034 116.135 832.034 115.75C832.04 108.886 829.912 102.186 825.94 96.5655C821.967 90.9445 816.344 86.6751 809.837 84.3393C803.329 82.0036 796.254 81.7152 789.575 83.5133C782.896 85.3113 776.939 89.1084 772.515 94.3871C771.828 94.0374 771.14 93.7051 770.435 93.3905C770.559 92.1492 770.612 90.8907 770.612 89.6145C770.619 80.3388 767.258 71.3709 761.143 64.3532C755.028 57.3355 746.569 52.7377 737.315 51.4021C728.061 50.0666 718.631 52.0826 710.754 57.0808C702.876 62.079 697.077 69.725 694.42 78.6182C689.088 76.2442 683.27 75.1431 677.432 75.4035C671.594 75.6638 665.898 77.2784 660.803 80.1174C655.708 82.9563 651.354 86.9405 648.093 91.7504C644.831 96.5603 642.752 102.062 642.022 107.813C641.123 107.813 640.259 107.708 639.272 107.708C628.694 107.708 618.549 111.876 611.069 119.296C603.589 126.715 599.387 136.778 599.387 147.27C599.392 150.681 599.836 154.076 600.709 157.375C594.679 159.39 589.437 163.229 585.723 168.354C582.008 173.478 580.006 179.629 580 185.941C579.999 186.962 580.052 187.984 580.159 189L1505 188.947Z" fill="white"/>
    <path opacity="0.8" d="M-71 153.955C-69.8187 143.523 -64.8777 133.894 -57.1185 126.903C-49.3593 119.912 -39.3242 116.048 -28.9249 116.046C-26.322 116.046 -23.7249 116.291 -21.1672 116.778C-16.9377 112.253 -11.7783 108.717 -6.05133 106.419C-6.34235 104.379 -6.49084 102.321 -6.49554 100.26C-6.49872 91.1155 -3.59875 82.2105 1.77881 74.8521C7.15637 67.4938 14.7283 62.0697 23.3833 59.3758C32.0383 56.6818 41.3207 56.86 49.868 59.8842C58.4153 62.9083 65.7776 68.619 70.8743 76.1784C80.1067 72.5594 90.3031 72.3214 99.6912 75.5058C109.079 78.6901 117.066 85.0954 122.262 93.6083C124.454 94.3624 126.583 95.2921 128.628 96.3887C133.564 88.028 141.171 81.6124 150.198 78.1965C153.558 72.5708 158.157 67.8023 163.637 64.2616C169.117 60.7208 175.332 58.503 181.799 57.78C188.265 57.0571 194.81 57.8486 200.925 60.0931C207.04 62.3376 212.56 65.9749 217.057 70.7223C225.247 68.3119 233.968 68.4613 242.073 71.1508C250.178 73.8403 257.286 78.9439 262.463 85.7903C267.419 82.142 273.102 79.6265 279.118 78.4184C285.133 77.2104 291.337 77.3386 297.299 78.7943C302.085 73.0387 308.287 68.6575 315.283 66.0916C322.279 63.5258 329.82 62.8659 337.149 64.1782C344.477 65.4905 351.334 68.7289 357.03 73.5673C362.725 78.4057 367.057 84.6734 369.591 91.7397C376.624 85.9333 384.918 81.8879 393.794 79.9337C402.671 77.9795 411.879 78.1719 420.668 80.495C429.457 82.8181 437.578 87.2064 444.367 93.3015C451.157 99.3967 456.424 107.026 459.737 115.568C460.257 111.634 461.603 107.859 463.683 104.492C465.764 101.126 468.532 98.2466 471.802 96.0465C475.073 93.8464 478.771 92.3762 482.649 91.7341C486.527 91.0919 490.496 91.2926 494.291 92.3227C494.291 92.0088 494.291 91.6949 494.291 91.366C494.286 85.4965 496.074 79.7682 499.411 74.9618C502.747 70.1554 507.471 66.5048 512.937 64.5076C518.403 62.5103 524.347 62.2637 529.957 63.8012C535.567 65.3386 540.571 68.5855 544.287 73.0991C544.865 72.8001 545.442 72.516 546.034 72.2469C545.931 71.1856 545.886 70.1094 545.886 69.0182C545.88 61.0868 548.703 53.4186 553.84 47.4179C558.977 41.4173 566.082 37.4858 573.856 36.3438C581.629 35.2018 589.55 36.9257 596.167 41.1995C602.784 45.4734 607.655 52.0112 609.887 59.6156C614.366 57.5856 619.253 56.6441 624.157 56.8667C629.061 57.0894 633.845 58.4699 638.125 60.8975C642.405 63.325 646.062 66.7318 648.802 70.8446C651.542 74.9574 653.289 79.6615 653.902 84.5794C654.657 84.5794 655.382 84.4898 656.211 84.4898C665.097 84.4898 673.619 88.0538 679.902 94.3979C686.185 100.742 689.715 109.346 689.715 118.318C689.711 121.234 689.338 124.138 688.604 126.958C693.67 128.681 698.073 131.964 701.193 136.346C704.314 140.728 705.995 145.987 706 151.384C706.001 152.258 705.956 153.131 705.867 154L-71 153.955Z" fill="white"/>
    <path d="M825 189.951C823.705 178.546 818.287 168.02 809.779 160.377C801.27 152.734 790.267 148.51 778.864 148.508C776.01 148.508 773.162 148.776 770.357 149.309C765.719 144.361 760.062 140.496 753.782 137.983C754.101 135.753 754.264 133.504 754.269 131.251C754.273 121.253 751.093 111.518 745.196 103.474C739.3 95.4296 730.997 89.4999 721.506 86.5549C712.016 83.6098 701.838 83.8046 692.465 87.1107C683.093 90.4167 675.02 96.6597 669.431 104.924C659.308 100.967 648.127 100.707 637.833 104.188C627.538 107.67 618.781 114.672 613.084 123.979C610.68 124.803 608.346 125.819 606.103 127.018C600.69 117.878 592.349 110.864 582.45 107.13C578.766 100.98 573.724 95.7669 567.715 91.8961C561.706 88.0253 554.891 85.6007 547.8 84.8104C540.709 84.0201 533.533 84.8853 526.828 87.3391C520.123 89.7928 514.07 93.7692 509.138 98.9592C500.158 96.3241 490.595 96.4873 481.708 99.4275C472.821 102.368 465.026 107.947 459.349 115.432C453.915 111.443 447.683 108.693 441.087 107.373C434.491 106.052 427.688 106.192 421.151 107.784C415.903 101.491 409.102 96.7018 401.431 93.8968C393.76 91.0917 385.49 90.3703 377.454 91.805C369.419 93.2396 361.9 96.7799 355.655 102.069C349.41 107.359 344.659 114.211 341.881 121.936C334.169 115.588 325.075 111.166 315.342 109.029C305.608 106.893 295.511 107.103 285.874 109.643C276.236 112.183 267.332 116.98 259.887 123.643C252.442 130.307 246.667 138.647 243.033 147.985C242.463 143.685 240.988 139.557 238.706 135.877C236.425 132.197 233.39 129.049 229.803 126.644C226.217 124.239 222.163 122.632 217.91 121.93C213.658 121.228 209.305 121.447 205.144 122.573C205.144 122.23 205.144 121.887 205.144 121.527C205.149 115.111 203.189 108.848 199.53 103.594C195.872 98.3394 190.692 94.3484 184.698 92.165C178.704 89.9816 172.188 89.7121 166.036 91.3928C159.884 93.0736 154.397 96.6231 150.322 101.557C149.689 101.231 149.056 100.92 148.407 100.626C148.52 99.4656 148.569 98.2891 148.569 97.0961C148.576 88.4254 145.48 80.0423 139.847 73.4823C134.215 66.9223 126.423 62.6244 117.9 61.3759C109.376 60.1274 100.691 62.012 93.4348 66.6842C86.1789 71.3565 80.8378 78.5038 78.39 86.817C73.4792 84.5979 68.12 83.5686 62.7425 83.8119C57.3651 84.0553 52.1193 85.5646 47.4261 88.2184C42.733 90.8722 38.7233 94.5966 35.7189 99.0928C32.7146 103.589 30.7993 108.732 30.1269 114.108C29.2989 114.108 28.5035 114.01 27.5944 114.01C17.8511 114.01 8.50684 117.906 1.61728 124.842C-5.27227 131.777 -9.14278 141.184 -9.14278 150.992C-9.13842 154.18 -8.72926 157.354 -7.92524 160.438C-13.4795 162.321 -18.3073 165.91 -21.7291 170.7C-25.1508 175.49 -26.9943 181.24 -27 187.14C-27.0007 188.095 -26.952 189.05 -26.8539 190L825 189.951Z" fill="white"/>
    <path d="M686 178.955C687.181 168.523 692.122 158.894 699.882 151.903C707.641 144.912 717.676 141.048 728.075 141.046C730.678 141.046 733.275 141.291 735.833 141.778C740.062 137.253 745.222 133.717 750.949 131.419C750.658 129.379 750.509 127.321 750.504 125.26C750.501 116.115 753.401 107.21 758.779 99.8521C764.156 92.4938 771.728 87.0697 780.383 84.3758C789.038 81.6818 798.321 81.86 806.868 84.8842C815.415 87.9083 822.778 93.619 827.874 101.178C837.107 97.5594 847.303 97.3214 856.691 100.506C866.079 103.69 874.066 110.095 879.262 118.608C881.454 119.362 883.583 120.292 885.628 121.389C890.564 113.028 898.171 106.612 907.198 103.197C910.558 97.5708 915.157 92.8023 920.637 89.2616C926.117 85.7208 932.332 83.503 938.799 82.78C945.265 82.0571 951.81 82.8486 957.925 85.0931C964.04 87.3376 969.56 90.9749 974.057 95.7223C982.247 93.3119 990.968 93.4613 999.073 96.1508C1007.18 98.8403 1014.29 103.944 1019.46 110.79C1024.42 107.142 1030.1 104.627 1036.12 103.418C1042.13 102.21 1048.34 102.339 1054.3 103.794C1059.08 98.0387 1065.29 93.6575 1072.28 91.0916C1079.28 88.5258 1086.82 87.8659 1094.15 89.1782C1101.48 90.4905 1108.33 93.7289 1114.03 98.5673C1119.72 103.406 1124.06 109.673 1126.59 116.74C1133.62 110.933 1141.92 106.888 1150.79 104.934C1159.67 102.98 1168.88 103.172 1177.67 105.495C1186.46 107.818 1194.58 112.206 1201.37 118.302C1208.16 124.397 1213.42 132.026 1216.74 140.568C1217.26 136.634 1218.6 132.859 1220.68 129.492C1222.76 126.126 1225.53 123.247 1228.8 121.047C1232.07 118.846 1235.77 117.376 1239.65 116.734C1243.53 116.092 1247.5 116.293 1251.29 117.323C1251.29 117.009 1251.29 116.695 1251.29 116.366C1251.29 110.496 1253.07 104.768 1256.41 99.9618C1259.75 95.1554 1264.47 91.5048 1269.94 89.5076C1275.4 87.5103 1281.35 87.2637 1286.96 88.8012C1292.57 90.3386 1297.57 93.5855 1301.29 98.0991C1301.86 97.8001 1302.44 97.516 1303.03 97.2469C1302.93 96.1856 1302.89 95.1094 1302.89 94.0182C1302.88 86.0868 1305.7 78.4186 1310.84 72.4179C1315.98 66.4173 1323.08 62.4858 1330.86 61.3438C1338.63 60.2018 1346.55 61.9257 1353.17 66.1995C1359.78 70.4734 1364.65 77.0112 1366.89 84.6156C1371.37 82.5856 1376.25 81.6441 1381.16 81.8667C1386.06 82.0894 1390.85 83.4699 1395.13 85.8975C1399.41 88.325 1403.06 91.7318 1405.8 95.8446C1408.54 99.9574 1410.29 104.662 1410.9 109.579C1411.66 109.579 1412.38 109.49 1413.21 109.49C1422.1 109.49 1430.62 113.054 1436.9 119.398C1443.18 125.742 1446.71 134.346 1446.71 143.318C1446.71 146.234 1446.34 149.138 1445.6 151.958C1450.67 153.681 1455.07 156.964 1458.19 161.346C1461.31 165.728 1462.99 170.987 1463 176.384C1463 177.258 1462.96 178.131 1462.87 179L686 178.955Z" fill="white"/>
</svg>
