<svg width="203" height="60" viewBox="0 0 203 60" fill="none" xmlns="http://www.w3.org/2000/svg">
    <g clip-path="url(#clip0_16_76)">
        <path d="M195.5 0H8C3.85786 0 0.5 3.35786 0.5 7.5V52.5C0.5 56.6421 3.85786 60 8 60H195.5C199.642 60 203 56.6421 203 52.5V7.5C203 3.35786 199.642 0 195.5 0Z" fill="black"/>
        <path d="M71.63 15.3598C71.681 16.4713 71.2745 17.5558 70.505 18.3598C69.644 19.2538 68.444 19.7383 67.205 19.6948C65.303 19.6798 63.596 18.5263 62.873 16.7683C62.15 15.0103 62.5505 12.9883 63.89 11.6398C64.7615 10.7503 65.9615 10.2628 67.205 10.2898C67.8395 10.2883 68.4665 10.4158 69.05 10.6648C69.593 10.8838 70.076 11.2288 70.46 11.6698L69.665 12.4648C69.0575 11.7433 68.147 11.3488 67.205 11.3998C66.2585 11.3953 65.351 11.7763 64.691 12.4558C64.031 13.1353 63.677 14.0533 63.71 14.9998C63.6905 16.4293 64.532 17.7313 65.8445 18.2983C67.157 18.8653 68.6825 18.5878 69.71 17.5948C70.172 17.0953 70.4375 16.4458 70.46 15.7648H67.205V14.6848H71.57C71.6105 14.9083 71.63 15.1333 71.63 15.3598V15.3598ZM78.5 11.6098H74.45V14.4598H78.14V15.5398H74.45V18.3898H78.5V19.4998H73.25V10.4998H78.5V11.6098V11.6098ZM83.42 19.4998H82.265V11.6098H79.745V10.4998H86V11.6098H83.42V19.4998ZM90.41 19.4998V10.4998H91.565V19.4998H90.41ZM96.695 19.4998H95.54V11.6098H93.02V10.4998H99.2V11.6098H96.695V19.4998ZM110.915 18.3298C109.089 20.1448 106.14 20.1448 104.315 18.3298C102.545 16.4563 102.545 13.5283 104.315 11.6548C105.188 10.7758 106.376 10.2808 107.615 10.2808C108.854 10.2808 110.042 10.7758 110.915 11.6548C112.692 13.5253 112.692 16.4593 110.915 18.3298ZM105.17 17.5798C106.521 18.9268 108.708 18.9268 110.06 17.5798C111.387 16.1158 111.387 13.8838 110.06 12.4198C108.708 11.0728 106.521 11.0728 105.17 12.4198C103.842 13.8838 103.842 16.1158 105.17 17.5798ZM113.87 19.4998V10.4998H115.28L119.66 17.5048V10.4998H120.815V19.4998H119.615L115.04 12.1648V19.4998H113.87Z" fill="white" stroke="white" stroke-width="0.2"/>
        <path d="M102.71 32.6252C99.1925 32.6417 96.3545 35.5037 96.365 39.0197C96.3755 42.5372 99.233 45.3797 102.751 45.3752C106.268 45.3692 109.115 42.5177 109.115 39.0002C109.139 37.2962 108.472 35.6567 107.264 34.4552C106.057 33.2537 104.413 32.5937 102.71 32.6252ZM102.71 42.8702C101.125 42.9812 99.6335 42.1112 98.948 40.6772C98.2625 39.2432 98.5235 37.5362 99.6065 36.3737C100.69 35.2097 102.373 34.8272 103.852 35.4062C105.331 35.9852 106.306 37.4117 106.31 39.0002C106.36 39.9947 106.004 40.9652 105.326 41.6942C104.648 42.4232 103.705 42.8462 102.71 42.8702V42.8702ZM88.745 32.6252C85.226 32.6342 82.379 35.4917 82.385 39.0107C82.391 42.5297 85.2455 45.3782 88.7645 45.3752C92.2835 45.3722 95.135 42.5192 95.135 39.0002C95.159 37.2962 94.4915 35.6567 93.284 34.4552C92.0765 33.2537 90.4325 32.5937 88.73 32.6252H88.745V32.6252ZM88.745 42.8702C87.1595 42.9872 85.6625 42.1217 84.9725 40.6892C84.2825 39.2567 84.539 37.5467 85.6205 36.3812C86.7005 35.2142 88.385 34.8272 89.867 35.4062C91.349 35.9852 92.3255 37.4102 92.33 39.0002C92.3795 39.9947 92.024 40.9652 91.346 41.6942C90.668 42.4232 89.7245 42.8462 88.73 42.8702H88.745ZM72.11 34.5902V37.2902H78.59C78.488 38.5622 77.96 39.7622 77.09 40.6952C75.779 42.0302 73.9655 42.7502 72.095 42.6752C68.1185 42.6752 64.895 39.4517 64.895 35.4752C64.895 31.4987 68.1185 28.2752 72.095 28.2752C73.922 28.2452 75.686 28.9412 77 30.2102L78.905 28.3052C77.1125 26.4902 74.6615 25.4777 72.11 25.5002C68.4785 25.3592 65.06 27.2162 63.203 30.3392C61.3445 33.4622 61.3445 37.3532 63.203 40.4762C65.0615 43.5992 68.4785 45.4562 72.11 45.3152C74.708 45.4322 77.2295 44.4212 79.025 42.5402C80.597 40.8137 81.4355 38.5442 81.365 36.2102C81.3695 35.6417 81.32 35.0747 81.215 34.5152L72.11 34.5902V34.5902ZM140.075 36.6902C139.274 34.3337 137.102 32.7167 134.615 32.6252C132.956 32.6222 131.371 33.3047 130.234 34.5137C129.097 35.7212 128.512 37.3457 128.615 39.0002C128.578 40.6937 129.231 42.3302 130.425 43.5332C131.619 44.7362 133.251 45.4007 134.945 45.3752C137.076 45.3872 139.072 44.3267 140.255 42.5552L138.08 41.0552C137.42 42.1562 136.229 42.8282 134.945 42.8252C133.616 42.8762 132.391 42.1082 131.855 40.8902L140.39 37.3652L140.075 36.6902V36.6902ZM131.375 38.8202C131.314 37.8827 131.631 36.9602 132.258 36.2612C132.885 35.5607 133.766 35.1437 134.705 35.1002C135.694 35.0357 136.627 35.5667 137.075 36.4502L131.375 38.8202V38.8202ZM124.445 45.0002H127.25V26.2502H124.445V45.0002ZM119.855 34.0502H119.75C118.895 33.0947 117.673 32.5487 116.39 32.5502C112.985 32.7152 110.309 35.5232 110.309 38.9327C110.309 42.3422 112.985 45.1502 116.39 45.3152C117.677 45.3362 118.907 44.7872 119.75 43.8152H119.84V44.7302C119.84 47.1752 118.535 48.4802 116.435 48.4802C115.004 48.4472 113.737 47.5517 113.225 46.2152L110.78 47.2352C111.722 49.5257 113.959 51.0152 116.435 51.0002C119.72 51.0002 122.435 49.0652 122.435 44.3552V33.0002H119.855V34.0502V34.0502ZM116.645 42.8702C114.64 42.6932 113.101 41.0132 113.101 39.0002C113.101 36.9872 114.64 35.3072 116.645 35.1302C117.614 35.1797 118.522 35.6192 119.164 36.3467C119.804 37.0757 120.125 38.0312 120.05 39.0002C120.132 39.9722 119.815 40.9352 119.168 41.6672C118.522 42.3977 117.605 42.8327 116.63 42.8702H116.645V42.8702ZM153.215 26.2502H146.51V45.0002H149.315V37.8902H153.23C155.41 38.0462 157.493 36.9737 158.63 35.1077C159.767 33.2417 159.767 30.8987 158.63 29.0327C157.493 27.1667 155.41 26.0942 153.23 26.2502H153.215ZM153.215 35.2502H149.3V28.8602H153.275C155.053 28.8602 156.493 30.3002 156.493 32.0777C156.493 33.8552 155.053 35.2952 153.275 35.2952L153.215 35.2502ZM170.51 32.5502C168.423 32.4257 166.462 33.5507 165.515 35.4152L168.005 36.4502C168.506 35.5262 169.507 34.9847 170.555 35.0702C171.275 34.9862 171.997 35.1947 172.562 35.6492C173.126 36.1037 173.485 36.7652 173.555 37.4852V37.6802C172.654 37.2032 171.65 36.9557 170.63 36.9602C167.945 36.9602 165.23 38.4602 165.23 41.1752C165.284 42.3452 165.808 43.4432 166.684 44.2202C167.56 44.9972 168.712 45.3872 169.88 45.3002C171.319 45.4037 172.7 44.7137 173.48 43.5002H173.57V45.0002H176.27V37.7852C176.27 34.5002 173.78 32.5952 170.585 32.5952L170.51 32.5502V32.5502ZM170.165 42.8252C169.25 42.8252 167.975 42.3602 167.975 41.2352C167.975 39.7352 169.565 39.2402 170.975 39.2402C171.866 39.2177 172.747 39.4352 173.525 39.8702C173.332 41.5487 171.931 42.8297 170.24 42.8702L170.165 42.8252V42.8252ZM186.11 33.0002L182.9 41.1302H182.81L179.48 33.0002H176.48L181.475 44.3702L178.625 50.6852H181.55L189.23 33.0002H186.11ZM160.895 45.0002H163.7V26.2502H160.895V45.0002Z" fill="white"/>
        <path d="M16.16 11.3101C15.671 11.8966 15.425 12.6481 15.47 13.4101V46.5901C15.425 47.3521 15.671 48.1036 16.16 48.6901L16.265 48.7951L34.85 30.2251V29.7901L16.265 11.2051L16.16 11.3101V11.3101Z" fill="url(#paint0_linear_16_76)"/>
        <path d="M41 36.4201L34.85 30.2251V29.7901L41 23.5801L41.135 23.6551L48.5 27.8401C50.6 29.0251 50.6 30.9751 48.5 32.1751L41.165 36.3451L41 36.4201Z" fill="url(#paint1_linear_16_76)"/>
        <path d="M41.18 36.33L34.85 30L16.16 48.69C17.0435 49.467 18.353 49.5045 19.28 48.78L41.195 36.33" fill="url(#paint2_linear_16_76)"/>
        <path d="M41.18 23.6698L19.265 11.2198C18.338 10.4953 17.0285 10.5328 16.145 11.3098L34.85 29.9998L41.18 23.6698Z" fill="url(#paint3_linear_16_76)"/>
        <path opacity="0.2" d="M41 36.1948L19.265 48.5698C18.3755 49.2343 17.1545 49.2343 16.265 48.5698L16.16 48.6748L16.265 48.7798C17.153 49.4503 18.377 49.4503 19.265 48.7798L41.18 36.3298L41 36.1948V36.1948Z" fill="black"/>
        <path opacity="0.12" d="M16.16 48.48C15.671 47.8935 15.425 47.142 15.47 46.38V46.605C15.425 47.367 15.671 48.1185 16.16 48.705L16.265 48.6L16.16 48.48ZM48.5 31.95L41 36.195L41.135 36.33L48.5 32.16C49.3505 31.761 49.922 30.936 50 30C49.829 30.8475 49.2755 31.5675 48.5 31.95V31.95Z" fill="black"/>
        <path opacity="0.25" d="M19.265 11.4302L48.5 28.0501C49.2755 28.4326 49.829 29.1526 50 30.0001C49.922 29.0641 49.3505 28.2391 48.5 27.8401L19.265 11.2201C17.165 10.0351 15.455 11.0252 15.455 13.4252V13.6502C15.5 11.2352 17.18 10.2452 19.265 11.4302Z" fill="white"/>
    </g>
    <defs>
        <linearGradient id="paint0_linear_16_76" x1="27.2963" y1="13.065" x2="11.3644" y2="28.9969" gradientUnits="userSpaceOnUse">
            <stop stop-color="#00A0FF"/>
            <stop offset="0.01" stop-color="#00A1FF"/>
            <stop offset="0.26" stop-color="#00BEFF"/>
            <stop offset="0.51" stop-color="#00D2FF"/>
            <stop offset="0.76" stop-color="#00DFFF"/>
            <stop offset="1" stop-color="#00E3FF"/>
        </linearGradient>
        <linearGradient id="paint1_linear_16_76" x1="51.245" y1="30.0001" x2="14.9601" y2="30.0001" gradientUnits="userSpaceOnUse">
            <stop stop-color="#FFE000"/>
            <stop offset="0.41" stop-color="#FFBD00"/>
            <stop offset="0.78" stop-color="#FFA500"/>
            <stop offset="1" stop-color="#FF9C00"/>
        </linearGradient>
        <linearGradient id="paint2_linear_16_76" x1="37.7449" y1="35.9655" x2="10.5278" y2="63.1704" gradientUnits="userSpaceOnUse">
            <stop stop-color="#FF3A44"/>
            <stop offset="1" stop-color="#C31162"/>
        </linearGradient>
        <linearGradient id="paint3_linear_16_76" x1="11.4499" y1="8.41722" x2="23.5983" y2="20.5654" gradientUnits="userSpaceOnUse">
            <stop stop-color="#32A071"/>
            <stop offset="0.07" stop-color="#2DA771"/>
            <stop offset="0.48" stop-color="#15CF74"/>
            <stop offset="0.8" stop-color="#06E775"/>
            <stop offset="1" stop-color="#00F076"/>
        </linearGradient>
        <clipPath id="clip0_16_76">
            <rect width="202.5" height="60" fill="white" transform="translate(0.5)"/>
        </clipPath>
    </defs>
</svg>
