<svg width="30" height="30" viewBox="0 0 30 30" fill="none" xmlns="http://www.w3.org/2000/svg">
    <path d="M25.9091 0H4.09091C1.83156 0 0 1.83156 0 4.09091V25.9091C0 28.1684 1.83156 30 4.09091 30H25.9091C28.1684 30 30 28.1684 30 25.9091V4.09091C30 1.83156 28.1684 0 25.9091 0Z" fill="#0077B5"/>
    <path d="M10.8068 8.18182C10.8068 8.68751 10.6569 9.18185 10.3759 9.60232C10.095 10.0228 9.69565 10.3505 9.22846 10.544C8.76126 10.7375 8.24717 10.7882 7.75119 10.6895C7.25522 10.5909 6.79964 10.3473 6.44206 9.98977C6.08448 9.63219 5.84097 9.17661 5.74231 8.68063C5.64366 8.18466 5.69429 7.67057 5.88781 7.20337C6.08133 6.73617 6.40904 6.33685 6.82951 6.0559C7.24998 5.77495 7.74431 5.625 8.25 5.625C8.92811 5.625 9.57845 5.89438 10.0579 6.37388C10.5374 6.85337 10.8068 7.50371 10.8068 8.18182Z" fill="white"/>
    <path d="M10.2273 12.4432V23.7392C10.2277 23.8225 10.2117 23.9051 10.1801 23.9822C10.1485 24.0594 10.102 24.1295 10.0433 24.1886C9.9845 24.2476 9.91463 24.2945 9.83769 24.3265C9.76074 24.3585 9.67823 24.375 9.59489 24.375H6.9C6.81667 24.3752 6.73411 24.359 6.65708 24.3272C6.58005 24.2954 6.51006 24.2487 6.45113 24.1898C6.3922 24.1308 6.34551 24.0608 6.31372 23.9838C6.28193 23.9068 6.26568 23.8242 6.26591 23.7409V12.4432C6.26591 12.275 6.33272 12.1137 6.45163 11.9948C6.57055 11.8759 6.73183 11.8091 6.9 11.8091H9.59489C9.76277 11.8095 9.92362 11.8765 10.0422 11.9954C10.1607 12.1143 10.2273 12.2753 10.2273 12.4432Z" fill="white"/>
    <path d="M24.3136 18.3238V23.792C24.3139 23.8686 24.2989 23.9445 24.2697 24.0154C24.2405 24.0862 24.1976 24.1506 24.1434 24.2047C24.0892 24.2589 24.0249 24.3018 23.954 24.3311C23.8832 24.3603 23.8073 24.3752 23.7307 24.375H20.8329C20.7563 24.3752 20.6804 24.3603 20.6096 24.3311C20.5388 24.3018 20.4744 24.2589 20.4202 24.2047C20.3661 24.1506 20.3231 24.0862 20.2939 24.0154C20.2647 23.9445 20.2498 23.8686 20.25 23.792V18.4926C20.25 17.7017 20.4818 15.029 18.1824 15.029C16.4011 15.029 16.0381 16.8579 15.9665 17.6795V23.792C15.9665 23.9452 15.9062 24.0922 15.7988 24.2013C15.6913 24.3103 15.5452 24.3727 15.392 24.375H12.5932C12.5167 24.375 12.441 24.3599 12.3704 24.3306C12.2997 24.3013 12.2356 24.2583 12.1816 24.2041C12.1276 24.15 12.0848 24.0857 12.0557 24.015C12.0266 23.9443 12.0117 23.8685 12.0119 23.792V12.3937C12.0117 12.3173 12.0266 12.2415 12.0557 12.1708C12.0848 12.1001 12.1276 12.0358 12.1816 11.9816C12.2356 11.9275 12.2997 11.8845 12.3704 11.8552C12.441 11.8259 12.5167 11.8108 12.5932 11.8108H15.392C15.5467 11.8108 15.6949 11.8722 15.8043 11.9815C15.9136 12.0909 15.975 12.2391 15.975 12.3937V13.379C16.6364 12.3869 17.6165 11.6216 19.708 11.6216C24.3409 11.6216 24.3136 15.9477 24.3136 18.3238Z" fill="white"/>
</svg>
