<svg width="20" height="20" viewBox="0 0 20 20" fill="none" xmlns="http://www.w3.org/2000/svg">
    <g clip-path="url(#clip0_20_281)">
        <path d="M10.0309 0.0305731C10.0307 0.0305731 10.0305 0.0305731 10.0303 0.0305731H10.0024C4.49648 0.0123852 0.0182856 4.46108 5.41697e-05 9.96699C-0.00647261 11.9474 0.576934 13.8849 1.67596 15.5324L0.0607967 19.4032C-0.0107803 19.5499 0.0276407 19.7265 0.153607 19.8302C0.230449 19.9126 0.337967 19.9597 0.450663 19.9601C0.502659 19.9715 0.556484 19.9715 0.60848 19.9601L4.53499 18.3171C6.16116 19.4032 8.07476 19.9786 10.0302 19.9694C15.5362 19.9696 19.9998 15.5063 20 10.0003C20.0002 4.49437 15.5369 0.0307472 10.0309 0.0305731ZM10.4108 14.8084C10.411 14.9048 10.3745 14.9977 10.3087 15.0683H10.2994C10.2207 15.1493 10.1151 15.1988 10.0024 15.2075C9.88877 15.2025 9.78187 15.1524 9.70533 15.0683C9.62914 14.9956 9.58563 14.8951 9.58467 14.7898C9.57571 14.6846 9.617 14.5813 9.69606 14.5113C9.85562 14.3447 10.12 14.339 10.2866 14.4986C10.291 14.5028 10.2953 14.507 10.2994 14.5113C10.3828 14.5862 10.4244 14.6971 10.4108 14.8084ZM10.4108 10.7333V10.7426V12.5991C10.4108 12.8272 10.2259 13.0122 9.99777 13.0122C9.76964 13.0122 9.58471 12.8272 9.58471 12.5991V10.362C9.57936 10.1416 9.75363 9.95863 9.97401 9.95328C9.9835 9.95306 9.99294 9.95315 10.0024 9.95358C11.1963 9.93836 12.1561 8.96617 12.156 7.7722C12.1554 6.58285 11.1909 5.61906 10.0015 5.61958C8.81286 5.62011 7.84937 6.58355 7.84889 7.7722C7.84889 8.00547 7.65979 8.19457 7.42653 8.19457C7.19326 8.19457 7.00416 8.00547 7.00416 7.7722C6.99911 6.11632 8.33736 4.76984 9.9932 4.76479C11.649 4.75975 12.9956 6.09795 13.0006 7.75384C13.0052 9.25539 11.8984 10.5288 10.4108 10.7333Z" fill="#3FB9EB"/>
    </g>
    <defs>
        <clipPath id="clip0_20_281">
            <rect width="20" height="20" fill="white"/>
        </clipPath>
    </defs>
</svg>
