<svg xmlns="http://www.w3.org/2000/svg" display="none">

    <symbol id="booking" viewBox="0 0 50 50">
        <path d="M12.2669 47.1137H16.6014C19.1141 47.1137 19.1178 43.1989 16.6014 43.1989H12.2669C9.7543 43.1989 9.75059 47.1137 12.2669 47.1137ZM12.2669 44.6637H16.6014C17.2381 44.6637 17.2381 45.6489 16.6014 45.6489H12.2669C11.6303 45.6489 11.6303 44.6637 12.2669 44.6637Z"/>
        <path d="M17.6461 25.1748L12.8747 29.9462L11.2223 28.2937C10.5524 27.6244 9.5168 28.6598 10.1864 29.3295L12.3568 31.5C12.7022 31.7859 13.0475 31.7859 13.3927 31.5L18.682 26.2106C19.3516 25.5409 18.3159 24.5054 17.6461 25.1748V25.1748Z"/>
        <path d="M49.456 32.402C49.1603 31.8375 48.946 31.2191 48.8005 30.5985C48.0862 27.6108 47.0011 24.7163 45.5756 21.9952L43.1921 17.4458C41.8429 14.8702 37.8609 15.2984 37.1092 18.1233C35.3261 17.4818 33.3132 18.5362 32.8256 20.3675C31.3515 19.837 29.6492 20.4618 28.8677 21.8176V5.73467V2.86162C28.8676 1.28379 27.5839 0 26.0059 0H8.94336C7.99639 0 7.99639 1.46484 8.94336 1.46484H26.0059C26.7761 1.46484 27.4027 2.09141 27.4027 2.86162V5.00225H1.46553V2.86162C1.46553 2.09141 2.09209 1.46484 2.86231 1.46484H4.8419C5.78887 1.46484 5.78887 0 4.8419 0H2.86231C1.28448 0 0.000686646 1.28379 0.000686646 2.86162V5.73467V41.0359V47.1384C0.000686646 48.7162 1.28448 50 2.86231 50H26.0059C27.5838 50 28.8676 48.7162 28.8676 47.1384V41.0359V38.1022L31.4849 39.3968C32.1316 39.7167 32.6632 40.2493 32.9817 40.8968C34.1444 43.2596 37.1245 44.2392 39.4653 43.0127L43.8291 40.7266C44.668 40.2871 43.9882 38.9896 43.1493 39.429L38.7856 41.7151C37.1647 42.5647 35.1041 41.8919 34.2961 40.25C33.836 39.3151 33.0684 38.5458 32.1343 38.0837L21.0275 32.5899C18.9415 31.5768 20.4501 28.3042 22.5687 29.2923L26.6015 31.4152C27.2236 31.7428 27.9177 31.0502 27.5914 30.4273L20.5857 17.0551C19.4353 14.8924 22.516 12.8961 23.6911 15.1395L28.6431 24.5914L29.9365 27.0604C30.3635 27.8757 31.6724 27.2173 31.2341 26.3806L29.9748 23.977C29.4649 22.2776 31.5628 20.9075 32.9131 22.0922L34.3144 24.7668C34.7413 25.5821 36.0502 24.9237 35.6119 24.087L34.1871 21.3675C34.0538 19.8051 35.9671 18.7996 37.1766 19.8302L38.5869 22.5224C39.0139 23.3377 40.3228 22.6793 39.8845 21.8426L38.4738 19.15C38.2819 17.2325 40.9807 16.3812 41.8943 18.1255L44.2778 22.6749C45.6472 25.2887 46.6895 28.0691 47.3757 30.9388C47.5422 31.6832 47.8042 32.4057 48.1583 33.0815C49.0023 34.6923 48.3782 36.6893 46.7676 37.5332C45.9288 37.9729 46.6087 39.2703 47.4474 38.8308C49.7736 37.6121 50.6747 34.7281 49.456 32.402V32.402ZM27.4027 47.1384C27.4027 47.9086 26.7761 48.5352 26.0059 48.5352H2.86231C2.09209 48.5352 1.46553 47.9086 1.46553 47.1384V41.7684H27.4027V47.1384ZM18.8329 29.5309C18.3357 30.576 18.4323 31.8277 19.0802 32.7862C17.869 34.0537 16.2072 34.772 14.4341 34.772C10.886 34.772 7.99952 31.8854 7.99952 28.3374C7.99952 24.7894 10.886 21.9028 14.4341 21.9028C17.8006 21.9028 20.5697 24.5021 20.8443 27.7988C19.9769 28.0635 19.2229 28.7109 18.8329 29.5309V29.5309ZM24.1509 13.434C23.8315 13.1747 23.4631 12.9753 23.0586 12.8489C20.7125 12.1158 18.3497 14.2672 18.8661 16.6697H4.96143C4.82676 16.6697 4.71729 16.5603 4.71729 16.4256V11.1914C4.71729 11.0567 4.82676 10.9473 4.96143 10.9473H23.9067C24.0414 10.9473 24.1509 11.0567 24.1509 11.1914V13.434ZM27.4027 19.0676L25.6157 15.6567V11.1914C25.6157 10.2491 24.849 9.48242 23.9067 9.48242H4.96143C4.01914 9.48242 3.25244 10.2491 3.25244 11.1914V16.4257C3.25244 17.368 4.01914 18.1347 4.96143 18.1347H19.4974L25.2022 29.0234L23.2367 27.9888C23.228 27.9842 23.2191 27.9797 23.2103 27.9755C22.9192 27.837 22.6148 27.7437 22.3052 27.695C21.9769 23.6389 18.5733 20.438 14.4342 20.438C10.0784 20.438 6.53477 23.9816 6.53477 28.3374C6.53477 32.6932 10.0784 36.2368 14.4342 36.2368C16.6188 36.2368 18.6672 35.351 20.1553 33.7847C22.4789 35.1237 24.9985 36.1885 27.4027 37.3776V40.3034H1.46553V6.46709H27.4027V19.0676Z"/>
    </symbol>

    <symbol id="seat" viewBox="0 0 50 50">
        <path d="M40.7665 1.20081C35.6784 1.20081 31.539 5.33074 31.539 10.4071V17.8535C31.539 22.9315 35.6785 27.0628 40.7665 27.0628C45.8546 27.0628 49.994 22.9315 49.994 17.8535V10.4071C49.994 5.33074 45.8546 1.20081 40.7665 1.20081ZM40.7665 3.15391C44.5076 3.15391 47.5969 5.98464 47.996 9.61057H33.5368C33.936 5.98464 37.0255 3.15391 40.7665 3.15391ZM40.7665 25.1097C36.7554 25.1097 33.4921 21.8547 33.4921 17.8535V11.5637H48.0409V17.8535C48.0409 21.8547 44.7776 25.1097 40.7665 25.1097Z"/>
        <path d="M39.5042 7.35876H42.0289C42.5681 7.35876 43.0054 6.92146 43.0054 6.3822C43.0054 5.84294 42.5681 5.40564 42.0289 5.40564H39.5042C38.9649 5.40564 38.5276 5.84294 38.5276 6.3822C38.5276 6.92146 38.9648 7.35876 39.5042 7.35876Z"/>
        <path d="M42.3256 32.5699H35.0676C34.506 30.1453 32.3256 28.3318 29.7272 28.3318H14.1815L13.5165 24.6848H24.7224C26.6085 24.6848 28.143 23.1515 28.143 21.2668C28.143 19.3836 26.6085 17.8514 24.7224 17.8514H12.2697L11.5304 13.8048C12.8605 13.0006 13.6062 11.4337 13.3178 9.8558L12.0942 3.13127C11.7163 1.06274 9.72372 -0.314396 7.65255 0.0619669L3.14362 0.878754C2.14256 1.06049 1.2707 1.62259 0.688769 2.46155C0.106354 3.30109 -0.113956 4.31426 0.0684636 5.31415C1.8246 14.9607 3.00476 21.4262 4.55171 29.9003L5.66703 36.0102C6.01029 37.901 7.65695 39.2733 9.58261 39.2733H17.5228V43.5431H9.18593C7.40217 43.5431 5.95101 44.992 5.95101 46.7729V49.0235C5.95101 49.5628 6.38831 50 6.92756 50H35.1317C35.671 50 36.1083 49.5628 36.1083 49.0235V46.7729C36.1083 44.992 34.6583 43.5431 32.8761 43.5431H24.5363V39.2733H42.3256C44.1782 39.2733 45.6853 37.7698 45.6853 35.9216C45.6854 34.0735 44.1782 32.5699 42.3256 32.5699ZM26.1899 21.2668C26.1899 22.0745 25.5316 22.7317 24.7224 22.7317H11.4553C10.6445 22.7317 9.98485 22.0746 9.98485 21.2668C9.98485 20.4605 10.6445 19.8045 11.4553 19.8045H24.7224C25.5316 19.8046 26.1899 20.4605 26.1899 21.2668ZM7.58859 35.6604L6.47317 29.5495C4.92632 21.0759 3.74615 14.6105 1.99002 4.96406C1.90145 4.47813 2.00916 3.98477 2.29363 3.57472C2.57849 3.16408 3.00427 2.88908 3.49215 2.80041L8.00089 1.98372C9.01367 1.80003 9.98837 2.47209 10.1726 3.48156L11.3963 10.2062C11.563 11.118 11.0199 12.0225 10.133 12.31C9.66757 12.4609 9.38574 12.9331 9.47363 13.4144L10.3196 18.0454C8.98848 18.5139 8.03175 19.7807 8.03175 21.2669C8.03175 23.1516 9.56757 24.6849 11.4553 24.6849H11.5312L12.4061 29.4837C12.4907 29.9477 12.8951 30.285 13.3668 30.285H29.7272C31.6732 30.285 33.2563 31.8624 33.2563 33.8013V37.3203H9.58261C8.58594 37.3202 7.76613 36.6381 7.58859 35.6604ZM34.1552 46.7729V48.0469H7.90411V46.7729C7.90411 46.0689 8.4792 45.4962 9.18593 45.4962H32.8762C33.5813 45.4962 34.1552 46.0689 34.1552 46.7729ZM22.5832 43.5431H19.4759V39.2733H22.5832V43.5431ZM42.3256 37.3202H35.2094V34.523H42.3256C43.1012 34.523 43.7322 35.1504 43.7322 35.9215C43.7323 36.6928 43.1013 37.3202 42.3256 37.3202Z"/>
    </symbol>

    <symbol id="web" viewBox="0 0 48 44">
        <path d="M41.1878 25.03C42.1012 20.4293 41.4265 15.6549 39.2741 11.4875C37.1218 7.3201 33.6191 4.00628 29.3389 2.08794C25.0587 0.169607 20.2543 -0.239721 15.7113 0.926896C11.1683 2.09351 7.15552 4.76704 4.32919 8.51028C1.50286 12.2535 0.0302301 16.845 0.152103 21.5338C0.273977 26.2226 1.98315 30.7314 5.00011 34.3227C8.01708 37.9141 12.1633 40.3756 16.7608 41.3046C21.3583 42.2336 26.135 41.5753 30.3097 39.4372C31.1568 40.7062 32.2954 41.7541 33.6302 42.4932C34.9651 43.2323 36.4575 43.6411 37.9827 43.6855C39.5078 43.7298 41.0215 43.4085 42.3971 42.7482C43.7726 42.088 44.9702 41.1081 45.8896 39.8904C46.809 38.6727 47.4236 37.2526 47.682 35.7488C47.9403 34.245 47.835 32.7012 47.3747 31.2465C46.9144 29.7917 46.1126 28.4683 45.0363 27.3868C43.9599 26.3053 42.6404 25.4972 41.1878 25.03ZM38.2578 24.5665C36.1011 24.5662 34.0083 25.299 32.3229 26.6446C32.4961 24.9309 32.6011 23.273 32.6289 21.7932H40.0016C39.9623 22.7632 39.8496 23.7288 39.6645 24.6818C39.1991 24.6087 38.7289 24.5702 38.2578 24.5665ZM21.6643 40.1278V32.654C24.0442 32.6983 26.4117 33.0078 28.7231 33.5766C28.7125 33.7603 28.6951 33.9422 28.6951 34.1285C28.6975 34.8575 28.7836 35.5838 28.9516 36.2933C28.6971 37.1693 28.3488 38.0154 27.9129 38.8169C25.9178 39.5996 23.8057 40.0427 21.6643 40.1278ZM13.7908 38.7848C12.9972 37.2194 12.4248 35.5516 12.0898 33.8288C14.6978 33.0892 17.3912 32.6932 20.1018 32.651V40.1328C17.9366 40.0465 15.8022 39.5905 13.7908 38.7848ZM11.6031 37.7448C10.402 37.0754 9.27624 36.279 8.24505 35.3694C9.00614 34.967 9.79376 34.617 10.6024 34.3218C10.8639 35.4826 11.1982 36.6259 11.6031 37.7448ZM1.76217 20.2307C1.94985 15.5761 3.83495 11.1512 7.06165 7.79125C8.08493 8.36754 9.15655 8.8534 10.2643 9.24332C9.56687 12.8672 9.16454 16.5418 9.06132 20.2307H1.76217ZM20.1018 1.89115V9.3806C17.3879 9.33837 14.6913 8.9416 12.0803 8.20038C12.4143 6.48246 12.9793 4.81767 13.76 3.25138C15.7804 2.438 17.9255 1.97789 20.1018 1.89115ZM27.9063 3.21194C28.7031 4.79479 29.2772 6.4802 29.6122 8.22031C27.024 8.94803 24.3525 9.33801 21.6643 9.38055V1.89115C23.8045 1.97658 25.9149 2.42313 27.9063 3.21194ZM30.0834 4.23343C31.3166 4.91359 32.4713 5.72719 33.5268 6.65957C32.7439 7.07311 31.9331 7.43149 31.1003 7.73212C30.836 6.54548 30.4963 5.37688 30.0834 4.23343ZM21.6643 10.9427C24.4609 10.8978 27.2405 10.496 29.9354 9.74704C30.5964 13.205 30.9738 16.7113 31.0639 20.2307H21.6643V10.9427ZM10.5933 7.70695C9.78579 7.41164 8.99935 7.06164 8.23944 6.65937C9.26662 5.75286 10.3877 4.95869 11.5836 4.2904C11.1834 5.40775 10.8527 6.54877 10.5933 7.70695ZM11.7563 9.72639C14.4742 10.4891 17.2792 10.8979 20.1018 10.9427V20.2307H10.624C10.7141 16.7043 11.0929 13.1911 11.7563 9.72639ZM20.1018 21.7932V31.0889C17.2816 31.1337 14.4789 31.5419 11.7631 32.3034C11.0953 28.8372 10.7143 25.322 10.6239 21.7932H20.1018ZM28.9364 32.0228C26.5534 31.4489 24.1149 31.1366 21.6643 31.0916V21.7932H31.0663C31.0086 24.0413 30.831 26.2846 30.5342 28.5137C29.7675 29.562 29.2237 30.7563 28.9364 32.0228ZM40.0038 20.2307H32.6265C32.5236 16.5506 32.123 12.8848 31.4287 9.2693C32.5621 8.8745 33.6582 8.37973 34.7039 7.79082C37.9309 11.1508 39.8162 15.5759 40.0038 20.2307ZM1.76217 21.7932H9.06127C9.16481 25.4843 9.5696 29.1606 10.2716 32.7858C9.16307 33.1756 8.09065 33.6615 7.06657 34.2378C3.83694 30.8773 1.94997 26.4503 1.76217 21.7932ZM38.2578 42.1286C36.6756 42.1286 35.129 41.6595 33.8134 40.7804C32.4979 39.9014 31.4725 38.6521 30.867 37.1903C30.2615 35.7285 30.1031 34.1201 30.4117 32.5683C30.7203 31.0165 31.4822 29.591 32.601 28.4722C33.7197 27.3534 35.1451 26.5915 36.6969 26.2828C38.2487 25.9741 39.8572 26.1324 41.3189 26.7379C42.7807 27.3433 44.0302 28.3686 44.9092 29.6841C45.7883 30.9996 46.2575 32.5462 46.2576 34.1284C46.2552 36.2494 45.4116 38.2828 43.9119 39.7826C42.4122 41.2824 40.3788 42.1261 38.2578 42.1286ZM43.8959 31.0111C43.8377 30.9046 43.7555 30.8132 43.6558 30.7441C43.5561 30.6749 43.4416 30.63 43.3215 30.6128C43.2014 30.5956 43.0789 30.6067 42.9638 30.6451C42.8487 30.6835 42.7442 30.7482 42.6584 30.8341L34.9631 38.5298C34.8773 38.6156 34.8126 38.7202 34.7743 38.8353C34.736 38.9504 34.725 39.0729 34.7422 39.193C34.7594 39.313 34.8044 39.4275 34.8735 39.5272C34.9426 39.6269 35.034 39.7091 35.1404 39.7673C36.1214 40.3072 37.226 40.5822 38.3455 40.5654C39.465 40.5486 40.5609 40.2405 41.5251 39.6714C42.4894 39.1023 43.2888 38.2919 43.8446 37.32C44.4005 36.3481 44.6936 35.2481 44.6951 34.1284C44.694 33.0388 44.4192 31.9669 43.8959 31.0111ZM38.2578 39.0036C37.7954 39.0047 37.3352 38.9399 36.891 38.8114L42.9385 32.7635C43.1498 33.4901 43.1893 34.2559 43.0536 35.0004C42.918 35.7448 42.611 36.4475 42.1569 37.0528C41.7029 37.6582 41.1142 38.1496 40.4375 38.4881C39.7607 38.8267 39.0145 39.0032 38.2578 39.0036ZM41.7734 29.0747C41.7567 28.955 41.7124 28.8409 41.6441 28.7412C41.5758 28.6415 41.4853 28.559 41.3798 28.5002C40.4261 27.9664 39.3507 27.6879 38.2578 27.6915C37.137 27.6911 36.0355 27.9834 35.0624 28.5395C34.0892 29.0956 33.2782 29.8963 32.7097 30.8622C32.1411 31.8281 31.8346 32.9257 31.8207 34.0465C31.8067 35.1672 32.0857 36.2721 32.63 37.2519C32.6889 37.3574 32.7715 37.4477 32.8713 37.5159C32.971 37.5841 33.0852 37.6282 33.2049 37.6448C33.2405 37.65 33.2764 37.6526 33.3124 37.6525C33.5196 37.6523 33.7183 37.57 33.8648 37.4236L41.5522 29.7354C41.6376 29.6499 41.7021 29.5457 41.7405 29.4311C41.7789 29.3164 41.7902 29.1945 41.7734 29.0747V29.0747ZM33.5795 35.4994C33.3348 34.6598 33.3203 33.7698 33.5375 32.9227C33.7546 32.0755 34.1954 31.3022 34.8137 30.6838C35.4321 30.0653 36.2053 29.6243 37.0524 29.4071C37.8995 29.1898 38.7895 29.2041 39.6292 29.4486L33.5795 35.4994Z"/>
    </symbol>

    <symbol id="hours-24" viewBox="0 0 48 50">
        <path d="M46.3834 25.1898L45.2141 24.6166C45.2226 23.7906 45.2098 23.0403 45.2141 22.334C45.2141 18.6998 44.2818 15.13 42.5144 11.9732C42.9275 11.3775 42.948 10.5827 42.529 9.95576C40.9758 7.63135 39.0269 5.63887 36.7367 4.03359C35.2367 2.98223 33.6123 2.11855 31.9087 1.46641C31.5308 1.32178 31.1074 1.51084 30.9628 1.88857C30.8181 2.26641 31.0072 2.68984 31.3849 2.83447C32.9765 3.44365 34.4942 4.25068 35.8959 5.2332C38.037 6.73398 39.859 8.59678 41.311 10.7697C41.4026 10.9067 41.3811 11.0872 41.2601 11.1988C41.1491 11.2867 38.7031 13.5878 38.5552 13.6773C38.4807 13.7146 38.409 13.7137 38.3667 13.708C38.307 13.6999 38.1956 13.6682 38.1199 13.5465C37.1583 12.0009 35.9577 10.6286 34.5514 9.46758C31.5725 7.0082 27.8063 5.65371 23.9466 5.65371C19.8879 5.65371 15.9738 7.13437 12.9252 9.82305C11.7252 10.8812 10.6846 12.1025 9.83202 13.4527C9.76161 13.5642 9.65497 13.5916 9.59755 13.5979C9.53749 13.6048 9.42206 13.6012 9.32284 13.5019L6.77977 10.9587C6.66649 10.8453 6.65057 10.6667 6.74198 10.5338C7.8202 8.96689 9.10721 7.55244 10.5673 6.32969C14.3138 3.19258 19.0653 1.46484 23.9467 1.46484C25.2892 1.46484 26.6327 1.59375 27.9398 1.84805C28.3368 1.92529 28.7214 1.66602 28.7986 1.26895C28.8759 0.871875 28.6166 0.487402 28.2195 0.410156C26.8205 0.137988 25.3829 0 23.9467 0C18.7221 0 13.6365 1.84922 9.62684 5.20684C8.06522 6.51465 6.68856 8.02764 5.53524 9.70361C5.09354 10.3456 5.12089 11.1875 5.57469 11.7964C4.84735 13.044 4.24657 14.3591 3.787 15.7137C3.65702 16.0967 3.86229 16.5126 4.2453 16.6426C4.32333 16.669 4.40262 16.6815 4.48065 16.6815C4.78583 16.6815 5.07069 16.4893 5.17421 16.1843C5.55897 15.0502 6.05135 13.9461 6.63905 12.8896L8.20311 14.4538C6.96092 16.9396 6.30614 19.7072 6.30614 22.4986V37.7471L2.26151 35.7641C1.78505 35.5305 1.47714 35.0367 1.47714 34.5061V27.7631C1.47714 27.2324 1.78505 26.7387 2.26151 26.5051C2.50878 26.3729 3.0077 26.1553 3.42059 25.9365C3.86688 25.6972 4.14413 25.2337 4.14413 24.727V22.5074C4.13885 21.5649 4.20389 20.6137 4.33739 19.6802C4.39471 19.2797 4.11649 18.9087 3.7161 18.8515C3.3162 18.794 2.94471 19.0724 2.88739 19.4728C2.74364 20.4774 2.67372 21.5012 2.67928 22.5115V24.6716C2.49608 24.7728 1.88749 25.0478 1.59003 25.203C0.630652 25.6861 0.0123901 26.6876 0.0123901 27.7631V34.5061C0.0123901 35.5914 0.642175 36.6016 1.61669 37.0794L6.50223 39.4746C7.01571 41.0328 8.48427 42.1611 10.2123 42.1611C12.3661 42.1611 14.1183 40.409 14.1183 38.2552V25.0809C14.1183 22.9271 12.3661 21.1748 10.2123 21.1748C9.29257 21.1748 8.44667 21.4951 7.7785 22.029C7.84764 19.6079 8.44979 17.2196 9.53485 15.0645C9.60956 15.0653 9.68466 15.0622 9.76014 15.0537C10.3026 14.9932 10.7804 14.6947 11.0708 14.2347C11.8488 13.0023 12.7988 11.8876 13.8942 10.9216C16.6751 8.46914 20.2451 7.11846 23.9467 7.11846C27.4669 7.11846 30.9018 8.35381 33.6189 10.5971C34.9026 11.6569 35.9985 12.9095 36.8762 14.3201C37.163 14.7811 37.6347 15.087 38.1703 15.1595C38.2512 15.1704 38.3319 15.1758 38.4123 15.1758C38.4476 15.1758 38.4827 15.1729 38.5178 15.1709C39.5692 17.2976 40.1536 19.6484 40.2217 22.029C39.5535 21.495 38.7076 21.1747 37.7878 21.1747C35.634 21.1747 33.8817 22.927 33.8817 25.0808V27.2773C33.8817 27.6818 34.2097 28.0098 34.6141 28.0098C35.0186 28.0098 35.3466 27.6818 35.3466 27.2773V25.0808C35.3466 23.7347 36.4417 22.6396 37.7878 22.6396C39.1339 22.6396 40.229 23.7347 40.229 25.0808V38.2551C40.229 39.6011 39.1339 40.6962 37.7878 40.6962C36.4417 40.6962 35.3466 39.6011 35.3466 38.2551V30.9703C35.3466 30.5658 35.0186 30.2379 34.6141 30.2379C34.2097 30.2379 33.8817 30.5658 33.8817 30.9703V38.2551C33.8817 40.4089 35.634 42.161 37.7878 42.161C38.7109 42.161 39.5597 41.8385 40.229 41.301V43.0457C40.229 43.5727 39.8002 44.0015 39.2732 44.0015H30.4977C30.2695 43.3258 29.631 42.8374 28.8794 42.8374H23.3412C22.3989 42.8374 21.6322 43.6041 21.6322 44.5464V48.291C21.6322 49.2333 22.3989 50 23.3412 50H28.8794C29.6284 50 30.265 49.5148 30.4952 48.8428H35.2504C35.6549 48.8428 35.9828 48.5148 35.9828 48.1104C35.9828 47.7059 35.6549 47.3779 35.2504 47.3779H30.5884V45.4664H39.2732C40.6079 45.4664 41.6938 44.3805 41.6938 43.0458V39.3784L43.6054 38.4413V44.945C43.6054 46.2865 42.514 47.3779 41.1724 47.3779H38.9041C38.4996 47.3779 38.1717 47.7059 38.1717 48.1104C38.1717 48.5148 38.4996 48.8428 38.9041 48.8428H41.1724C43.3217 48.8428 45.0702 47.0942 45.0702 44.945V37.7231L46.3834 37.0794C47.3579 36.6016 47.9877 35.5915 47.9877 34.5061V27.7631C47.9877 26.6777 47.3579 25.6677 46.3834 25.1898ZM10.2122 22.6397C11.5583 22.6397 12.6534 23.7349 12.6534 25.081V38.2553C12.6534 39.6013 11.5583 40.6964 10.2122 40.6964C8.8661 40.6964 7.77098 39.6013 7.77098 38.2553V25.0809C7.77098 23.7348 8.8661 22.6397 10.2122 22.6397ZM23.097 48.291V44.5466C23.097 44.412 23.2065 44.3024 23.3411 44.3024H25.3777V48.5352H23.3411C23.2065 48.5352 23.097 48.4256 23.097 48.291ZM29.1234 48.291C29.1234 48.4256 29.0139 48.5352 28.8793 48.5352H26.8427V44.3024H28.8793C29.0139 44.3024 29.1234 44.412 29.1234 44.5466V48.291ZM46.5228 34.5061C46.5228 35.0368 46.2149 35.5306 45.7385 35.7642L41.6938 37.7472C41.6938 35.8792 41.6938 24.0199 41.6938 22.4987C41.6938 19.7311 41.0496 16.984 39.8272 14.5144L41.4273 13.0378C42.9465 15.8851 43.747 19.0748 43.7493 22.3203C43.744 22.9285 43.7587 23.7442 43.7483 24.7273C43.7437 25.2122 44.0218 25.6634 44.4568 25.8768L45.7386 26.5052C46.215 26.7388 46.5229 27.2325 46.5229 27.7632V34.5061H46.5228Z"/>
        <path d="M30.587 22.6139C30.5342 21.98 30.1646 21.4666 29.6455 21.3057C29.4009 21.2299 28.7673 21.1332 28.1669 21.87C27.6086 22.555 24.8031 27.6236 24.2464 28.6327C24.1212 28.8595 24.1252 29.1357 24.2569 29.3589C24.3887 29.582 24.6285 29.7189 24.8876 29.7189H29.1168C29.1113 30.4961 29.1054 31.2459 29.0997 31.9113C29.0962 32.3158 29.4213 32.6464 29.8258 32.65H29.8322C30.2337 32.65 30.561 32.3262 30.5644 31.9238C30.5667 31.6637 30.5739 30.8109 30.5817 29.7188H31.1241C31.5286 29.7188 31.8565 29.3909 31.8565 28.9864C31.8565 28.5819 31.5286 28.254 31.1241 28.254H30.5915C30.6067 25.7956 30.6168 22.9722 30.587 22.6139ZM29.1266 28.2541H26.1313C27.2311 26.279 28.6075 23.8523 29.136 23.0352C29.1475 23.839 29.1401 26.0139 29.1266 28.2541Z"/>
        <path d="M23.0638 31.9826C23.0587 31.5781 22.7306 31.257 22.3222 31.2595C20.988 31.2763 19.5581 31.2856 18.5792 31.2814C19.129 30.5583 20.0283 29.3584 21.4055 27.3906C22.0702 26.4039 22.5769 25.4713 22.6428 24.4304C22.6428 22.6253 21.1742 21.1567 19.3691 21.1567C17.8083 21.1567 16.4574 22.267 16.1569 23.7967C16.079 24.1936 16.3376 24.5785 16.7345 24.6565C17.1314 24.7343 17.5164 24.4759 17.5943 24.079C17.7602 23.2346 18.5066 22.6216 19.3691 22.6216C20.3521 22.6216 21.1546 23.41 21.1774 24.3876C21.1216 25.0477 20.7601 25.7204 20.2053 26.5506C18.6276 28.8047 17.6857 30.0381 17.1797 30.7007C16.5779 31.4886 16.3964 31.7264 16.5288 32.157C16.6037 32.4007 16.7896 32.5881 17.0389 32.6711C17.5484 32.8078 20.6903 32.7316 22.3404 32.7241C22.745 32.719 23.0688 32.3871 23.0638 31.9826Z"/>
    </symbol>

    <symbol id="booking" viewBox="0 0 50 50">
        <path d="M16.4128 39.2093V33.4831C16.4128 31.9877 15.1962 30.771 13.7007 30.771H7.97451C6.47901 30.771 5.26241 31.9876 5.26241 33.4831V39.2093C5.26241 40.7047 6.47901 41.9214 7.97451 41.9214H13.7007C15.1962 41.9214 16.4128 40.7048 16.4128 39.2093ZM6.72842 39.2093V33.4831C6.72842 32.796 7.2874 32.237 7.97451 32.237H13.7007C14.3878 32.237 14.9468 32.796 14.9468 33.4831V39.2093C14.9468 39.8964 14.3878 40.4554 13.7007 40.4554H7.97451C7.2875 40.4554 6.72842 39.8964 6.72842 39.2093Z"/>
        <path d="M35.35 41.9214C36.8455 41.9214 38.0621 40.7048 38.0621 39.2093V33.4831C38.0621 31.9877 36.8455 30.771 35.35 30.771H29.6238C28.1283 30.771 26.9117 31.9876 26.9117 33.4831V39.2093C26.9117 40.7047 28.1283 41.9214 29.6238 41.9214H35.35ZM28.3776 39.2093V33.4831C28.3776 32.796 28.9366 32.237 29.6237 32.237H35.3499C36.037 32.237 36.596 32.796 36.596 33.4831V39.2093C36.596 39.8964 36.037 40.4554 35.3499 40.4554H29.6237C28.9367 40.4554 28.3776 39.8964 28.3776 39.2093Z"/>
        <path d="M21.696 31.781C21.3966 31.5086 20.9329 31.5303 20.6605 31.8297L19.0237 33.6279C18.7691 33.9076 18.7691 34.335 19.0237 34.6147L20.6605 36.413C20.8052 36.5718 21.0035 36.6526 21.2027 36.6526C21.3788 36.6526 21.5555 36.5895 21.696 36.4617C21.9953 36.1892 22.0172 35.7256 21.7445 35.4262L21.224 34.8544H23.7587C24.1636 34.8544 24.4917 34.5261 24.4917 34.1214C24.4917 33.7166 24.1636 33.3884 23.7587 33.3884H21.224L21.7445 32.8165C22.0172 32.5172 21.9953 32.0535 21.696 31.781Z"/>
        <path d="M19.5657 40.981H22.1004L21.5799 41.5528C21.3073 41.8521 21.3291 42.3158 21.6284 42.5883C21.769 42.7162 21.9456 42.7792 22.1217 42.7792C22.3208 42.7792 22.5193 42.6985 22.6639 42.5396L24.3008 40.7414C24.5554 40.4617 24.5554 40.0343 24.3008 39.7546L22.6639 37.9563C22.3915 37.657 21.9278 37.6352 21.6284 37.9077C21.329 38.1803 21.3072 38.6438 21.5799 38.9432L22.1004 39.5149H19.5657C19.1608 39.5149 18.8327 39.8432 18.8327 40.2479C18.8327 40.6528 19.1608 40.981 19.5657 40.981Z"/>
        <path d="M30.7571 35.7316H34.1841C34.589 35.7316 34.9171 35.4034 34.9171 34.9986C34.9171 34.5938 34.589 34.2656 34.1841 34.2656H30.7571C30.3523 34.2656 30.0241 34.5938 30.0241 34.9986C30.0241 35.4034 30.3523 35.7316 30.7571 35.7316Z"/>
        <path d="M30.7571 38.6018H34.1841C34.589 38.6018 34.9171 38.2735 34.9171 37.8688C34.9171 37.464 34.589 37.1357 34.1841 37.1357H30.7571C30.3523 37.1357 30.0241 37.464 30.0241 37.8688C30.0241 38.2736 30.3523 38.6018 30.7571 38.6018Z"/>
        <path d="M12.5674 34.2656H9.14043C8.73555 34.2656 8.40742 34.5938 8.40742 34.9986C8.40742 35.4034 8.73555 35.7316 9.14043 35.7316H12.5674C12.9723 35.7316 13.3004 35.4034 13.3004 34.9986C13.3004 34.5938 12.9723 34.2656 12.5674 34.2656Z"/>
        <path d="M12.5674 37.136H9.14043C8.73555 37.136 8.40742 37.4642 8.40742 37.869C8.40742 38.2738 8.73555 38.602 9.14043 38.602H12.5674C12.9723 38.602 13.3004 38.2738 13.3004 37.869C13.3004 37.4641 12.9723 37.136 12.5674 37.136Z"/>
        <path d="M9.6793 16.7759H5.95908C5.5542 16.7759 5.22607 17.1041 5.22607 17.5089C5.22607 17.9137 5.5542 18.2419 5.95908 18.2419H9.6793C10.0842 18.2419 10.4123 17.9137 10.4123 17.5089C10.4123 17.1041 10.0842 16.7759 9.6793 16.7759Z"/>
        <path d="M9.6793 19.6919H5.95908C5.5542 19.6919 5.22607 20.0201 5.22607 20.4249C5.22607 20.8297 5.5542 21.1579 5.95908 21.1579H9.6793C10.0842 21.1579 10.4123 20.8297 10.4123 20.4249C10.4123 20.02 10.0842 19.6919 9.6793 19.6919Z"/>
        <path d="M47.0884 12.4425L44.1078 11.2329C43.6088 11.0305 43.0827 10.9277 42.5443 10.9277H38.1988L27.3166 0.380859C27.0631 0.135254 26.7292 0 26.3762 0H22.9086C22.5676 0 22.2507 0.183984 22.0817 0.480273C21.9128 0.776465 21.9157 1.14287 22.0894 1.43623L27.7437 10.9963L22.394 11.9227L18.4319 8.95117C18.2437 8.80986 18.0103 8.73203 17.7747 8.73203H15.8236C15.4654 8.73203 15.137 8.92773 14.9667 9.24287C14.7963 9.55801 14.8123 9.93994 15.0085 10.2396L17.3227 13.7764H3.53291C2.48213 13.7764 1.62715 14.6313 1.62715 15.6821V48.0941C1.62715 49.145 2.48213 49.9999 3.53291 49.9999H10.7818C11.1867 49.9999 11.5148 49.6717 11.5148 49.2669C11.5148 48.8621 11.1867 48.5339 10.7818 48.5339H3.53291C3.29043 48.5339 3.09317 48.3366 3.09317 48.094V24.2712H23.3908L21.228 27.9278C21.0544 28.2213 21.0515 28.5877 21.2204 28.8839C21.3894 29.1802 21.7063 29.3642 22.0473 29.3642H25.5149C25.8679 29.3642 26.2019 29.2289 26.4553 28.9833L31.3172 24.2712H40.2316V48.0941C40.2316 48.3366 40.0343 48.534 39.7918 48.534H14.1475C13.7426 48.534 13.4145 48.8622 13.4145 49.267C13.4145 49.6718 13.7426 50 14.1475 50H39.7916C40.8424 50 41.6974 49.1451 41.6974 48.0942V17.7722H42.5443C43.0828 17.7722 43.6088 17.6695 44.1078 17.4671L47.0884 16.2575C47.8688 15.9408 48.373 15.1921 48.373 14.3499C48.3729 13.5078 47.8687 12.7591 47.0884 12.4425ZM3.09307 22.8053V15.6822C3.09307 15.4397 3.29034 15.2424 3.53282 15.2424H17.114L15.0085 18.4603C14.8123 18.76 14.7963 19.142 14.9667 19.457C15.1371 19.7722 15.4654 19.9679 15.8236 19.9679H17.7747C18.0101 19.9679 18.2435 19.8901 18.4316 19.7489L22.394 16.7772L27.3187 17.63L24.2578 22.8053H3.09307ZM40.2314 22.8053H32.8296L38.0227 17.7722H40.2313V22.8053H40.2314ZM46.5371 14.8991L43.5566 16.1087C43.2335 16.2397 42.893 16.3062 42.5443 16.3062H32.9243C32.5194 16.3062 32.1913 16.6345 32.1913 17.0393C32.1913 17.444 32.5194 17.7723 32.9243 17.7723H35.9163L25.4683 27.8982H22.9487L28.9378 17.7722H29.3846C29.7895 17.7722 30.1176 17.4439 30.1176 17.0392C30.1176 16.6344 29.7895 16.3062 29.3846 16.3062H28.3182C28.2892 16.3062 28.2601 16.3042 28.2317 16.3003L22.3324 15.2788C22.1335 15.2444 21.9292 15.2936 21.7676 15.4146L17.6512 18.502H16.7332L19.1874 14.7513C19.3469 14.5075 19.3469 14.1924 19.1873 13.9486L16.7332 10.198H17.6512L21.7676 13.2854C21.9292 13.4064 22.1338 13.4557 22.3324 13.4212L28.2318 12.3996C28.2604 12.3957 28.2894 12.3938 28.3182 12.3938H33.7886C34.1935 12.3938 34.5216 12.0655 34.5216 11.6607C34.5216 11.256 34.1935 10.9277 33.7886 10.9277H29.4063L23.8102 1.46592H26.3297L37.3725 12.1685C37.4898 12.2821 37.6353 12.3479 37.7857 12.3679C37.8464 12.3842 37.9099 12.3937 37.9758 12.3937H42.5443C42.8928 12.3937 43.2334 12.4602 43.5565 12.5913L46.537 13.8009C46.8802 13.94 46.9068 14.2563 46.9068 14.35C46.9068 14.4437 46.8803 14.7599 46.5371 14.8991Z"/>
        <path d="M28.8186 14.964C29.1865 14.964 29.4848 14.6657 29.4848 14.2978C29.4848 13.9299 29.1865 13.6316 28.8186 13.6316C28.4506 13.6316 28.1523 13.9299 28.1523 14.2978C28.1523 14.6657 28.4506 14.964 28.8186 14.964Z"/>
        <path d="M31.6109 14.964C31.9789 14.964 32.2771 14.6657 32.2771 14.2978C32.2771 13.9299 31.9789 13.6316 31.6109 13.6316C31.243 13.6316 30.9447 13.9299 30.9447 14.2978C30.9447 14.6657 31.243 14.964 31.6109 14.964Z"/>
        <path d="M34.5832 13.6318C34.2153 13.6318 33.9171 13.9301 33.9171 14.298C33.9171 14.6659 34.2153 14.9643 34.5832 14.9643C34.9511 14.9643 35.2494 14.666 35.2494 14.298C35.2494 13.9301 34.9511 13.6318 34.5832 13.6318Z"/>
        <path d="M37.3757 13.6318C37.0078 13.6318 36.7096 13.9301 36.7096 14.298C36.7096 14.6659 37.0078 14.9643 37.3757 14.9643C37.7436 14.9643 38.0419 14.666 38.0419 14.298C38.0418 13.9301 37.7436 13.6318 37.3757 13.6318Z"/>
    </symbol>

    <symbol id="suitcase" viewBox="0 0 34 50">
        <path d="M31.8564 12.8366C30.9587 11.939 29.7469 11.4004 28.4004 11.4004H25.2136V3.05206C25.2136 2.24417 24.9443 1.48115 24.4506 0.942549C23.9569 0.359066 23.2388 0 22.4309 0H11.5691C10.7612 0 10.0431 0.359066 9.54937 0.942549C9.05566 1.48115 8.78636 2.24417 8.78636 3.05206V11.3555H5.59965C4.25315 11.3555 2.99641 11.8941 2.14363 12.7917C1.24597 13.6894 0.707367 14.9013 0.707367 16.2478V40.6194C0.707367 41.9659 1.24597 43.2226 2.14363 44.0754C2.81688 44.7486 3.71455 45.2424 4.74686 45.4219V46.4542C4.74686 47.4417 5.15081 48.3393 5.77918 48.9677C6.40755 49.596 7.30521 50 8.29264 50H8.42729C9.41472 50 10.3124 49.596 10.9408 48.9677C11.5691 48.3393 11.9731 47.4417 11.9731 46.4542V45.5117H22.0269V46.4542C22.0269 47.4417 22.4309 48.3393 23.0592 48.9677C23.6876 49.596 24.5853 50 25.5727 50H25.7074C26.6499 50 27.5476 49.6409 28.1759 49.0126L28.2208 48.9677C28.8492 48.3393 29.2531 47.4417 29.2531 46.4542V45.4219C30.2406 45.2424 31.1382 44.7486 31.8564 44.0754C32.754 43.1777 33.2926 41.9659 33.2926 40.6194V16.2926C33.2926 14.9461 32.754 13.6894 31.8564 12.8366ZM10.5368 3.05206C10.5368 2.693 10.6715 2.33393 10.8959 2.10952C11.0754 1.8851 11.2998 1.79533 11.5691 1.79533H22.4309C22.7002 1.79533 22.9246 1.92998 23.1041 2.10952C23.3285 2.33393 23.4632 2.693 23.4632 3.05206V11.3555H21.3986V5.9246C21.3986 5.34111 21.2639 4.80251 20.9946 4.39856C20.6804 3.85996 20.1867 3.54578 19.6032 3.54578H14.3968C13.8133 3.54578 13.3196 3.85996 13.0054 4.39856C12.7361 4.80251 12.6014 5.34111 12.6014 5.9246V11.4004H10.5368V3.05206ZM14.3968 5.9246C14.3968 5.6553 14.4417 5.47576 14.5314 5.29623H19.4686C19.5583 5.43088 19.6032 5.6553 19.6032 5.87971V11.3555H14.3968V5.9246ZM10.1777 46.544C10.1777 47.0377 9.99821 47.4865 9.63914 47.8007C9.32496 48.1149 8.87613 48.3393 8.38241 48.3393H8.24776C7.75404 48.3393 7.30521 48.1598 6.99103 47.8007C6.67685 47.4865 6.45243 47.0377 6.45243 46.544V45.6014H10.1777V46.544ZM27.5476 46.544C27.5476 47.0377 27.368 47.4865 27.009 47.8007L26.9641 47.8456C26.6499 48.1598 26.2011 48.3393 25.7522 48.3393H25.6176C25.1239 48.3393 24.675 48.1598 24.3609 47.8007C24.0467 47.4865 23.8223 47.0377 23.8223 46.544V45.6014H27.5476V46.544ZM31.5871 40.6643C31.5871 41.5171 31.228 42.325 30.6445 42.8636C30.061 43.447 29.298 43.8061 28.4452 43.8061H22.9246H11.0754H5.55476C4.70198 43.8061 3.89408 43.447 3.35548 42.8636C2.772 42.2801 2.41293 41.5171 2.41293 40.6643V16.2926C2.41293 15.4399 2.772 14.632 3.35548 14.0934C3.93896 13.5099 4.70198 13.1508 5.55476 13.1508H9.63914H13.4542H20.456H24.2711H28.3555C29.298 13.1508 30.061 13.5099 30.6445 14.0934C31.228 14.6768 31.5871 15.4399 31.5871 16.2926V40.6643Z"/>
    </symbol>

    <symbol id="notification" viewBox="0 0 50 50">
        <path d="M29.1667 44.1667C28.7064 44.1667 28.3333 44.5398 28.3333 45C28.3333 46.8409 26.841 48.3333 25 48.3333H5C3.15905 48.3333 1.66667 46.8409 1.66667 45V5C1.66667 3.15905 3.15905 1.66667 5 1.66667H5.31833L7.1275 5.285C7.54861 6.13397 8.41566 6.66978 9.36333 6.66667H20.6367C21.5843 6.66978 22.4514 6.13397 22.8725 5.285L24.6817 1.66667H25C26.841 1.66667 28.3333 3.15905 28.3333 5V6.66667C28.3333 7.1269 28.7064 7.5 29.1667 7.5C29.6269 7.5 30 7.1269 30 6.66667V5C29.9972 2.23972 27.7603 0.00275615 25 0H5C2.23972 0.00275615 0.00275615 2.23972 0 5V45C0.00275615 47.7603 2.23972 49.9972 5 50H25C27.7603 49.9972 29.9972 47.7603 30 45C30 44.5398 29.6269 44.1667 29.1667 44.1667ZM21.3817 4.53917C21.2415 4.82227 20.9526 5.00101 20.6367 5H9.36333C9.04744 5.00101 8.75848 4.82227 8.61833 4.53917L7.18167 1.66667H22.8183L21.3817 4.53917Z"/>
        <path d="M21.6667 46.6665C22.1269 46.6665 22.5 46.2935 22.5 45.8333C22.5 45.3731 22.1269 45 21.6667 45H8.33333C7.8731 45 7.5 45.3731 7.5 45.8333C7.5 46.2935 7.8731 46.6665 8.33333 46.6665H21.6667Z"/>
        <path d="M45.0001 9.16675H21.6667C18.9064 9.1695 16.6694 11.4065 16.6667 14.1667V19.5001L7.54249 24.3659C7.0013 24.6561 6.66357 25.2205 6.66357 25.8346C6.66357 26.4487 7.0013 27.0131 7.54249 27.3034L16.6667 32.1667V37.5C16.6694 40.2603 18.9064 42.4973 21.6667 42.5H45.0001C47.7604 42.4973 49.9974 40.2603 50.0001 37.5V14.1667C49.9974 11.4065 47.7604 9.1695 45.0001 9.16675V9.16675ZM48.3335 37.5C48.3335 39.341 46.8411 40.8333 45.0001 40.8333H21.6667C19.8258 40.8333 18.3334 39.341 18.3334 37.5V31.6667C18.3336 31.3588 18.1641 31.0759 17.8925 30.9309L8.33333 25.8334L17.895 20.7342C18.1651 20.5888 18.3335 20.3068 18.3334 20.0001V14.1667C18.3334 12.3258 19.8258 10.8334 21.6667 10.8334H45.0001C46.8411 10.8334 48.3335 12.3258 48.3335 14.1667V37.5Z"/>
        <path d="M44.09 31.1669L42.0317 25.0593C41.7894 24.2279 41.6665 23.3662 41.6667 22.5001C41.6667 17.8977 37.9357 14.1667 33.3333 14.1667C28.731 14.1667 25 17.8977 25 22.5001C25.0009 23.3549 24.8814 24.2054 24.645 25.0268L22.5667 31.2002C22.4198 31.7038 22.5186 32.2472 22.8333 32.6669C23.1481 33.0866 23.6421 33.3335 24.1667 33.3335H29.1667C29.1667 35.6347 31.0322 37.5002 33.3333 37.5002C35.6345 37.5002 37.5 35.6347 37.5 33.3335H42.5C43.0246 33.3335 43.5186 33.0866 43.8333 32.6669C44.1481 32.2472 44.2469 31.7038 44.1 31.2002L44.09 31.1669ZM33.3333 35.8336C31.9526 35.8336 30.8333 34.7143 30.8333 33.3335H35.8333C35.8333 34.7143 34.7141 35.8336 33.3333 35.8336ZM36.6767 31.6769C36.652 31.6756 36.6272 31.6756 36.6025 31.6769L30.215 31.6877C30.1278 31.6735 30.0389 31.6735 29.9517 31.6877L24.1567 31.6977L26.2342 25.5252C26.5211 24.5424 26.6668 23.5239 26.6667 22.5001C26.6667 18.8182 29.6514 15.8334 33.3333 15.8334C37.0152 15.8334 40 18.8182 40 22.5001C40.0005 23.5358 40.1495 24.566 40.4425 25.5593L42.5 31.6669L36.6767 31.6769Z"/>
    </symbol>

    <symbol id="arrow-left" viewBox="0 0 18 30">
        <path d="M1.17963 16.0708L14.6705 29.5571C15.2625 30.1476 16.2215 30.1476 16.815 29.5571C17.407 28.9667 17.407 28.0076 16.815 27.4171L4.39423 15.0008L16.8135 2.58451C17.4055 1.99404 17.4055 1.03495 16.8135 0.44298C16.2215 -0.147495 15.261 -0.147495 14.669 0.44298L1.17813 13.9294C0.595131 14.5137 0.595133 15.4879 1.17963 16.0708Z"/>
    </symbol>

    <symbol id="arrow-right" viewBox="0 0 18 30">
        <path d="M16.8203 13.9292L3.32946 0.442857C2.73749 -0.147618 1.77841 -0.147619 1.18494 0.442856C0.592974 1.03333 0.592974 1.99242 1.18494 2.58289L13.6057 14.9992L1.18643 27.4155C0.594464 28.006 0.594464 28.965 1.18643 29.557C1.7784 30.1475 2.73898 30.1475 3.33095 29.557L16.8218 16.0706C17.4048 15.4863 17.4048 14.5121 16.8203 13.9292Z"/>
    </symbol>

</svg>