<svg width="25" height="25" viewBox="0 0 25 25" fill="none" xmlns="http://www.w3.org/2000/svg">
<path d="M24.4978 5.98724L19.048 0.666791C18.4126 0.0464067 17.3084 0.0358569 16.6905 0.692384L16.0488 1.34598L14.4881 0.287146C14.4881 0.287146 14.4881 0.287097 14.4881 0.287097L14.4878 0.286951C13.7285 -0.228327 12.6897 -0.0305186 12.1722 0.727501L2.68532 14.6241C2.4183 15.0152 3.0234 15.4284 3.29042 15.0371L9.20644 6.37113L15.3211 10.5195L17.0516 11.6936L8.74269 23.8648C8.45228 24.2903 7.8695 24.4012 7.44345 24.1122L1.14232 19.8374C0.72126 19.5516 0.60995 18.9636 0.896796 18.5434L2.19417 16.643C2.46124 16.2519 1.85619 15.8389 1.58907 16.23L0.291699 18.1304C-0.22055 18.8807 -0.0209346 19.9335 0.731028 20.4436L7.03216 24.7184C7.78222 25.2274 8.8369 25.0262 9.34778 24.2778L10.5252 22.5531C10.5713 22.5349 10.6145 22.5071 10.6515 22.4694L20.3421 12.5991C20.3423 12.599 20.3425 12.5988 20.3426 12.5987L22.0402 10.8696C22.372 10.5316 21.8493 10.0185 21.5175 10.3563L20.0758 11.8247L18.7397 10.5203L21.2285 6.87459C21.4796 6.50676 21.5722 6.06358 21.4891 5.62659C21.482 5.58913 21.4732 5.5523 21.4637 5.51577L22.199 4.76679L23.9857 6.51106C24.341 6.85769 24.3477 7.47353 23.9999 7.82778L23.1156 8.72847C22.7843 9.06601 23.3058 9.58036 23.6383 9.24179L24.5227 8.34105C25.159 7.69293 25.1477 6.62183 24.4978 5.98724ZM20.3776 5.16807C20.5837 5.3078 20.7227 5.51929 20.7692 5.76349C20.8157 6.00795 20.7638 6.25596 20.6232 6.46193L17.4647 11.0885L14.6273 9.16354L18.3118 3.76647L20.3776 5.16807ZM12.777 1.14089C13.0675 0.715339 13.6506 0.604371 14.0769 0.893366L17.7055 3.35517L14.0211 8.75225L9.61954 5.76613L12.777 1.14089ZM17.8635 11.8037C17.8636 11.8036 17.8638 11.8034 17.8639 11.8033L18.3202 11.1347L19.5625 12.3475L12.7677 19.2683L17.8635 11.8037ZM21.103 4.83746C21.0115 4.73416 20.9066 4.64156 20.7893 4.56204L16.665 1.76406L17.2138 1.20512C17.5653 0.847944 18.1759 0.83925 18.5366 1.19135L19.3776 2.01237L21.6748 4.25512L21.103 4.83746Z" fill="#FF9000"/>
<path d="M13.9773 2.25952C13.8103 2.14552 13.5823 2.1885 13.4682 2.35554L11.5347 5.18781C11.2755 5.56745 11.8609 6.00942 12.1398 5.60086L14.0733 2.76859C14.1874 2.6015 14.1444 2.37361 13.9773 2.25952Z" fill="#FF9000"/>
<path d="M14.8366 4.57069C15.1037 4.17952 14.4987 3.76657 14.2315 4.15764L12.8972 6.11222C12.638 6.49187 13.2233 6.93383 13.5023 6.52527L14.8366 4.57069Z" fill="#FF9000"/>
<path d="M6.00673 21.1416C6.18959 21.2515 6.35932 21.2194 6.5158 21.0455L12.9271 11.6541C13.1942 11.263 12.5891 10.85 12.322 11.2411L5.91076 20.6325C5.79666 20.7996 5.83964 21.0275 6.00673 21.1416Z" fill="#FF9000"/>
<path d="M11.9331 15.3434L7.55904 21.7507C7.29984 22.1304 7.8852 22.5723 8.16414 22.1638L12.5382 15.7565C12.8052 15.3653 12.2001 14.9524 11.9331 15.3434Z" fill="#FF9000"/>
<path d="M8.12988 14.8648C8.24685 14.8648 8.36183 14.8088 8.43274 14.705L11.2789 10.5359C11.5459 10.1447 10.9409 9.73182 10.6738 10.1228L7.82765 14.2919C7.67067 14.5219 7.85954 14.8648 8.12988 14.8648Z" fill="#FF9000"/>
<path d="M6.19211 15.3094C5.50457 14.8428 4.56398 15.0218 4.09535 15.7083L3.01679 17.2882C1.91278 18.9053 4.40935 20.5986 5.51141 18.9841L6.58997 17.4043C7.05533 16.7226 6.87013 15.7693 6.19211 15.3094ZM5.98493 16.9912L4.90636 18.571C4.34307 19.3961 3.05615 18.53 3.62188 17.7012L4.70045 16.1213C5.25465 15.3095 6.55222 16.1601 5.98493 16.9912Z" fill="#FF9000"/>
<path d="M16.1715 8.9847L17.0669 9.59218C17.4451 9.84884 17.8787 9.25767 17.4782 8.98587L16.5828 8.37838C16.1908 8.11239 15.7796 8.71871 16.1715 8.9847Z" fill="#FF9000"/>
<path d="M16.8804 7.94614L17.7758 8.55363C18.1541 8.8102 18.5877 8.21911 18.1872 7.94741L17.2918 7.33992C16.8998 7.07397 16.4885 7.68024 16.8804 7.94614Z" fill="#FF9000"/>
<path d="M17.5894 6.90771L18.4848 7.5152C18.863 7.77186 19.2966 7.18069 18.8961 6.90889L18.0007 6.3014C17.6087 6.03541 17.1975 6.64177 17.5894 6.90771Z" fill="#FF9000"/>
<path d="M18.2983 5.86915L19.1937 6.47663C19.572 6.7332 20.0056 6.14212 19.605 5.87042L18.7096 5.26293C18.3176 4.99708 17.9063 5.6033 18.2983 5.86915Z" fill="#FF9000"/>
</svg>
